<?xml version="1.0" encoding="utf-8"?>
<!-- Generator: Adobe Illustrator 16.0.0, SVG Export Plug-In . SVG Version: 6.00 Build 0)  -->
<!DOCTYPE svg PUBLIC "-//W3C//DTD SVG 1.1//EN" "http://www.w3.org/Graphics/SVG/1.1/DTD/svg11.dtd">
<svg version="1.1" id="Calque_1" xmlns="http://www.w3.org/2000/svg" xmlns:xlink="http://www.w3.org/1999/xlink" x="0px" y="0px"
	 width="42.52px" height="42.52px" viewBox="0 0 42.52 42.52" enable-background="new 0 0 42.52 42.52" xml:space="preserve">
<path fill="#020304" stroke="#FFFFFF" stroke-width="6" stroke-miterlimit="10" d="M18.263,19.671H8.399v-2.086h9.903v2.083h-0.04
	V19.671z M25.469,9.768H8.399v2.083h17.069V9.768z M25.469,13.676H8.399v2.083h17.069V13.676z M3.61,20.514V8.998
	c0-2.118,1.716-3.801,3.802-3.801h19c2.123,0,3.803,1.717,3.803,3.801V20.51c0,2.117-1.715,3.803-3.803,3.803H13.405l-4.313,4.352
	c-0.254,0.254-0.622,0.402-0.987,0.402c-0.364,0-0.693-0.148-0.985-0.402c-0.294-0.26-0.44-0.658-0.44-1.061v-3.402
	C4.927,23.873,3.61,22.34,3.61,20.514z M6.281,20.514c0,0.619,0.51,1.167,1.167,1.167H9.35v3.001l2.998-3.001H26.49
	c0.621,0,1.168-0.509,1.168-1.167V8.998c0-0.62-0.51-1.167-1.168-1.167H7.485c-0.618,0-1.167,0.513-1.167,1.167V20.51H6.281V20.514z
	 M23.125,30.018l-1.864,3.939l-2.323-3.977h-2.863c-0.619,0-1.171-0.516-1.171-1.174v-1.975h-0.438l-2.192,2.195
	c0.106,2.01,1.79,3.58,3.802,3.58h1.808l1.905,3.463c0,0,0.468,1.252,1.476,1.252c1.009,0,1.477-1.252,1.477-1.252l1.9-3.576h11.24
	C37.6,32.131,38.91,30.6,38.91,28.77V17.292c0-2.083-1.715-3.802-3.834-3.802h-2.303v2.669h2.303c0.621,0,1.17,0.51,1.17,1.168
	v11.514c0,0.617-0.512,1.139-1.17,1.139H23.125V30.018z"/>
<path fill="#020304" d="M18.263,19.671H8.399v-2.086h9.903v2.083h-0.04V19.671z M25.469,9.768H8.399v2.083h17.069V9.768z
	 M25.469,13.676H8.399v2.083h17.069V13.676z M3.61,20.514V8.998c0-2.118,1.716-3.801,3.802-3.801h19
	c2.123,0,3.803,1.717,3.803,3.801V20.51c0,2.117-1.715,3.803-3.803,3.803H13.405l-4.313,4.352c-0.254,0.254-0.622,0.402-0.987,0.402
	c-0.364,0-0.693-0.148-0.985-0.402c-0.294-0.26-0.44-0.658-0.44-1.061v-3.402C4.927,23.873,3.61,22.34,3.61,20.514z M6.281,20.514
	c0,0.619,0.51,1.167,1.167,1.167H9.35v3.001l2.998-3.001H26.49c0.621,0,1.168-0.509,1.168-1.167V8.998
	c0-0.62-0.51-1.167-1.168-1.167H7.485c-0.618,0-1.167,0.513-1.167,1.167V20.51H6.281V20.514z M23.125,30.018l-1.864,3.939
	l-2.323-3.977h-2.863c-0.619,0-1.171-0.516-1.171-1.174v-1.975h-0.438l-2.192,2.195c0.106,2.01,1.79,3.58,3.802,3.58h1.808
	l1.905,3.463c0,0,0.468,1.252,1.476,1.252c1.009,0,1.477-1.252,1.477-1.252l1.9-3.576h11.24C37.6,32.131,38.91,30.6,38.91,28.77
	V17.292c0-2.083-1.715-3.802-3.834-3.802h-2.303v2.669h2.303c0.621,0,1.17,0.51,1.17,1.168v11.514c0,0.617-0.512,1.139-1.17,1.139
	H23.125V30.018z"/>
</svg>
