<?xml version="1.0" encoding="utf-8"?>
<!-- Generator: Adobe Illustrator 16.0.0, SVG Export Plug-In . SVG Version: 6.00 Build 0)  -->
<!DOCTYPE svg PUBLIC "-//W3C//DTD SVG 1.1//EN" "http://www.w3.org/Graphics/SVG/1.1/DTD/svg11.dtd">
<svg version="1.1" id="Calque_1" xmlns="http://www.w3.org/2000/svg" xmlns:xlink="http://www.w3.org/1999/xlink" x="0px" y="0px"
	 width="42.52px" height="42.52px" viewBox="0 0 42.52 42.52" enable-background="new 0 0 42.52 42.52" xml:space="preserve">
<g id="Calque_2">
	<g>
		<g>
			<g>
				<g>
					<circle fill="#030405" stroke="#FFFFFF" stroke-width="6" stroke-miterlimit="10" cx="21.259" cy="7.447" r="3.973"/>
					<path fill="#030405" stroke="#FFFFFF" stroke-width="6" stroke-miterlimit="10" d="M16.141,26.792L16.141,26.792l0.825,8.37
						c0.216,2.21,2.071,3.883,4.287,3.883l0,0c2.209,0,4.062-1.673,4.287-3.875l0.827-8.371h0.009c1.781,0,3.173-1.533,2.996-3.305
						l-0.538-5.469c-0.248-2.542-2.4-4.48-4.958-4.472l-5.263,0.017c-2.542,0.008-4.674,1.94-4.925,4.472l-0.541,5.438
						C12.97,25.252,14.358,26.792,16.141,26.792z"/>
				</g>
			</g>
		</g>
	</g>
</g>
<g>
	<g>
		<g>
			<g>
				<circle fill="#030405" cx="21.259" cy="7.447" r="3.972"/>
				<path fill="#030405" d="M16.141,26.792L16.141,26.792l0.825,8.37c0.216,2.21,2.071,3.883,4.287,3.883l0,0
					c2.209,0,4.062-1.673,4.287-3.875l0.827-8.371h0.009c1.781,0,3.173-1.533,2.996-3.305l-0.538-5.469
					c-0.248-2.542-2.4-4.48-4.958-4.472l-5.263,0.017c-2.542,0.008-4.674,1.94-4.925,4.472l-0.541,5.438
					C12.97,25.252,14.358,26.792,16.141,26.792z"/>
			</g>
		</g>
	</g>
</g>
</svg>
