<?xml version="1.0" ?><!DOCTYPE svg  PUBLIC '-//W3C//DTD SVG 1.1//EN'  'http://www.w3.org/Graphics/SVG/1.1/DTD/svg11.dtd'><svg enable-background="new 0 0 128 128" id="Слой_1" version="1.1" viewBox="0 0 128 128" xml:space="preserve" xmlns="http://www.w3.org/2000/svg" xmlns:xlink="http://www.w3.org/1999/xlink"><g><path d="M102.029,22.911H45.594c-2.73,0-4.95,2.221-4.95,4.95v50.801c0.65,0.183,1.311,0.328,1.98,0.441V27.861   c0-1.638,1.332-2.97,2.97-2.97h56.436c1.638,0,2.97,1.332,2.97,2.97v81.188c0,1.638-1.332,2.97-2.97,2.97H45.594   c-1.638,0-2.97-1.332-2.97-2.97V91.088c-0.664-0.068-1.324-0.157-1.98-0.268v18.229c0,2.73,2.221,4.95,4.95,4.95h56.436   c2.73,0,4.95-2.221,4.95-4.95V27.861C106.98,25.132,104.759,22.911,102.029,22.911z" fill="#313638"/><path d="M51.535,34.792h44.554c0.547,0,0.99-0.443,0.99-0.99c0-0.547-0.443-0.99-0.99-0.99H51.535   c-0.547,0-0.99,0.443-0.99,0.99C50.545,34.349,50.987,34.792,51.535,34.792z" fill="#313638"/><path d="M51.535,44.693h44.554c0.547,0,0.99-0.443,0.99-0.99c0-0.547-0.443-0.99-0.99-0.99H51.535   c-0.547,0-0.99,0.443-0.99,0.99C50.545,44.25,50.987,44.693,51.535,44.693z" fill="#313638"/><path d="M51.535,54.594h44.554c0.547,0,0.99-0.443,0.99-0.99c0-0.547-0.443-0.99-0.99-0.99H51.535   c-0.547,0-0.99,0.443-0.99,0.99C50.545,54.151,50.987,54.594,51.535,54.594z" fill="#313638"/><path d="M51.535,64.495h44.554c0.547,0,0.99-0.443,0.99-0.99s-0.443-0.99-0.99-0.99H51.535   c-0.547,0-0.99,0.443-0.99,0.99S50.987,64.495,51.535,64.495z" fill="#313638"/><path d="M32.723,100.139V88.35c-0.672-0.315-1.331-0.658-1.98-1.022v12.811c0,2.73,2.221,4.951,4.95,4.951h0.99   v-1.98h-0.99C34.055,103.109,32.723,101.777,32.723,100.139z" fill="#313638"/><path d="M32.723,18.95c0-1.638,1.332-2.97,2.97-2.97h56.436c1.638,0,2.97,1.332,2.97,2.97h1.98   c0-2.73-2.221-4.95-4.95-4.95H35.693c-2.73,0-4.95,2.221-4.95,4.95v52.934c0.593,0.786,1.26,1.522,1.98,2.215V18.95z" fill="#313638"/><path d="M47.64,86.246c5.572-0.408,10.745-2.558,14.9-6.143l-2.389,8.632c-0.146,0.527,0.163,1.072,0.69,1.218   c0.088,0.024,0.177,0.036,0.265,0.036c0.433,0,0.832-0.287,0.953-0.726l3.39-12.248c0.003-0.011,0.001-0.022,0.003-0.034   c0.009-0.039,0.007-0.079,0.012-0.12c0.009-0.084,0.014-0.167,0.002-0.249c-0.002-0.017,0.004-0.034,0-0.051   c-0.005-0.028-0.024-0.049-0.031-0.075c-0.022-0.077-0.051-0.148-0.09-0.218c-0.023-0.041-0.046-0.079-0.075-0.116   c-0.044-0.057-0.097-0.106-0.153-0.153c-0.038-0.031-0.072-0.064-0.114-0.089c-0.015-0.009-0.025-0.024-0.041-0.032   c-0.052-0.028-0.109-0.037-0.163-0.055c-0.044-0.015-0.084-0.035-0.129-0.043c-0.121-0.022-0.243-0.024-0.362-0.001   c-0.001,0-0.001,0-0.002,0l-12.053,2.347c-0.537,0.104-0.887,0.625-0.782,1.161c0.092,0.473,0.507,0.801,0.971,0.801   c0.063,0,0.127-0.006,0.19-0.018l8.905-1.734c-8.765,7.791-22.195,8.09-31.306,0.218c-4.804-4.149-7.703-9.92-8.166-16.25   c-0.463-6.33,1.567-12.462,5.716-17.266c0.358-0.414,0.311-1.038-0.102-1.396c-0.412-0.356-1.037-0.313-1.396,0.102   c-4.495,5.204-6.694,11.846-6.193,18.704c0.502,6.857,3.644,13.109,8.848,17.604C34.138,84.547,40.773,86.74,47.64,86.246z" fill="#313638"/><path d="M83.713,74.396c-8.735,0-15.842,7.107-15.842,15.842s7.107,15.842,15.842,15.842   c4.446,0,8.464-1.848,11.344-4.808c0.018-0.016,0.041-0.022,0.057-0.039c0.023-0.024,0.031-0.055,0.051-0.08   c2.712-2.844,4.389-6.684,4.389-10.914C99.554,81.503,92.448,74.396,83.713,74.396z M97.524,89.248H84.703V76.706   c0-0.1-0.029-0.191-0.057-0.282C91.525,76.885,97.035,82.376,97.524,89.248z M94.346,99.115l-8.18-7.887h11.358   C97.311,94.216,96.159,96.947,94.346,99.115z M69.852,90.238c0-7.328,5.72-13.331,12.928-13.814   c-0.028,0.091-0.057,0.182-0.057,0.282v13.532c0,0.003,0.002,0.005,0.002,0.008c0.001,0.108,0.028,0.214,0.064,0.317   c0.007,0.02,0.005,0.043,0.013,0.062c0.01,0.022,0.03,0.04,0.042,0.062c0.049,0.094,0.103,0.184,0.178,0.257   c0.002,0.002,0.003,0.005,0.005,0.007l9.937,9.582c-2.456,2.209-5.693,3.567-9.25,3.567C76.07,104.099,69.852,97.881,69.852,90.238   z" fill="#313638"/></g></svg>