<?xml version="1.0" ?><!DOCTYPE svg  PUBLIC '-//W3C//DTD SVG 1.1//EN'  'http://www.w3.org/Graphics/SVG/1.1/DTD/svg11.dtd'><svg enable-background="new 0 0 512 512" height="512px" version="1.1" viewBox="0 0 512 512" width="512px" xml:space="preserve" xmlns="http://www.w3.org/2000/svg" xmlns:xlink="http://www.w3.org/1999/xlink"><g id="Слой_14"><path d="M333.799,277.129   c-1.311,35.133-29.896,62.581-63.845,61.312c-33.941-1.268-60.396-30.771-59.082-65.903c1.313-35.127,29.896-62.573,63.839-61.305   C308.658,212.499,335.113,242.003,333.799,277.129z" fill="none" stroke="#010101" stroke-miterlimit="10" stroke-width="20"/><path d="M264.393,150.141   c0,0,106.516,8.832,154.171,90.273c47.652,81.444,4.672,166.811,4.672,166.811" fill="none" stroke="#010101" stroke-miterlimit="10" stroke-width="20"/><path d="M284.017,71.361   c0,0-112.398,60.308-144.513,153.086c-32.113,92.78,52.632,154.015,52.632,154.015" fill="none" stroke="#010101" stroke-miterlimit="10" stroke-width="20"/><path d="M88.657,351.558c0,0,116.86,93.704,223.905,45.46   c107.047-48.245,99.909-141.024,99.909-141.024" fill="none" stroke="#010101" stroke-miterlimit="10" stroke-width="20"/><path d="M176.078,353.475   c0,0,76.077,54.941,104.107,53.746" fill="none" stroke="#010101" stroke-miterlimit="10" stroke-width="20"/><path d="M287.808,168.781   c0,0-78.947-17.396-124.442,13.221" fill="none" stroke="#010101" stroke-miterlimit="10" stroke-width="20"/><ellipse cx="308.018" cy="59.035" fill="none" rx="27.377" ry="28.035" stroke="#010101" stroke-miterlimit="10" stroke-width="20"/><ellipse cx="406.958" cy="424.965" fill="none" rx="27.377" ry="28.035" stroke="#010101" stroke-miterlimit="10" stroke-width="20"/><ellipse cx="71.712" cy="340.368" fill="none" rx="27.377" ry="28.035" stroke="#010101" stroke-miterlimit="10" stroke-width="20"/><ellipse cx="256.146" cy="256.755" rx="27.377" ry="28.035" stroke="#010101" stroke-miterlimit="10" stroke-width="20"/><ellipse cx="244.667" cy="240.998" fill="#FFFFFF" rx="13" ry="13.333"/></g></svg>