<?xml version="1.0" ?><!DOCTYPE svg  PUBLIC '-//W3C//DTD SVG 1.1//EN'  'http://www.w3.org/Graphics/SVG/1.1/DTD/svg11.dtd'><svg enable-background="new 0 0 24 24" height="24px" id="Layer_1" version="1.1" viewBox="0 0 24 24" width="24px" xml:space="preserve" xmlns="http://www.w3.org/2000/svg" xmlns:xlink="http://www.w3.org/1999/xlink"><path d="M23.3,7.5C22.5,7,12.8,0.2,12.8,0.2c-0.4-0.3-1.2-0.3-1.6,0c0,0-9.8,6.8-10.5,7.3S0,8.5,0,8.5V9v0c0,0.5,0.4,1,0.9,1H2v12H1  c-0.6,0-1,0.5-1,1v1h24v-1c0-0.6-0.5-1-1-1h-1V10h1c0.5,0,1-0.4,1-1v0V8.5C24,8.5,24.1,8.1,23.3,7.5z M12,2l8.9,6H3.1L12,2z M3,22  V10h2v12H3z M6,22V10h4v12H6z M11,22V10h2v12H11z M14,22V10h4v12H14z M21,22h-2V10h2V22z"/></svg>