<?xml version="1.0" ?><!DOCTYPE svg  PUBLIC '-//W3C//DTD SVG 1.1//EN'  'http://www.w3.org/Graphics/SVG/1.1/DTD/svg11.dtd'><svg enable-background="new 0 0 24 24" height="24px" id="Layer_1" version="1.1" viewBox="0 0 24 24" width="24px" xml:space="preserve" xmlns="http://www.w3.org/2000/svg" xmlns:xlink="http://www.w3.org/1999/xlink"><g><path d="M12,1.9c-6.6,0-12,5.4-12,12c0,3.8,1.7,7.1,4.5,9.3c0.5,0.4,1.2,0.9,1.8,0.5c0.5-0.4,0.4-0.6,0.8-1.2   c1.1-1.6,2.9-2.7,5-2.7s3.9,1.1,5,2.7c0.4,0.6,0.5,0.8,0.9,1.2c0.4,0.4,1.1-0.1,1.6-0.5c2.7-2.2,4.5-5.6,4.5-9.3   C24,7.3,18.6,1.9,12,1.9z M18.6,21.4c-1.4-2.1-3.9-3.5-6.6-3.5s-5.2,1.4-6.6,3.5C3.3,19.5,2,16.9,2,13.9c0-5.5,4.5-10,10-10   s10,4.5,10,10C22,16.9,20.7,19.5,18.6,21.4z"/><path d="M12,5.9c-1.1,0-2,0.9-2,2c0,1.1,0.9,2,2,2s2-0.9,2-2C14,6.8,13.1,5.9,12,5.9z M12,8.9c-0.6,0-1-0.4-1-1s0.4-1,1-1   s1,0.4,1,1S12.6,8.9,12,8.9z"/><path d="M17.9,11.6c0.8-0.7,1-2,0.2-2.8c-0.7-0.8-2-1-2.8-0.2c-0.8,0.7-1,2-0.2,2.8C15.8,12.2,17,12.3,17.9,11.6z M16,9.3   C16.4,8.9,17,9,17.4,9.4s0.3,1.1-0.1,1.4c-0.4,0.4-1.1,0.3-1.4-0.1C15.5,10.2,15.5,9.6,16,9.3z"/><path d="M18.3,13c-1.1-0.2-2.1,0.5-2.3,1.6c-0.2,1.1,0.5,2.1,1.6,2.3c1.1,0.2,2.1-0.5,2.3-1.6C20.1,14.2,19.3,13.2,18.3,13z    M17.7,15.9c-0.5-0.1-0.9-0.6-0.8-1.2c0.1-0.5,0.6-0.9,1.2-0.8s0.9,0.6,0.8,1.2C18.8,15.6,18.3,16,17.7,15.9z"/><path d="M5.9,8.7c-0.7,0.8-0.6,2.1,0.2,2.8c0.8,0.7,2.1,0.6,2.8-0.2c0.7-0.8,0.6-2.1-0.2-2.8C7.8,7.8,6.6,7.9,5.9,8.7z M8.2,10.7   c-0.4,0.4-1,0.5-1.4,0.1s-0.5-1-0.1-1.4C7,9,7.6,8.9,8,9.3C8.5,9.6,8.5,10.2,8.2,10.7z"/><path d="M5.7,13c-1.1,0.2-1.8,1.2-1.6,2.3c0.2,1.1,1.2,1.8,2.3,1.6c1.1-0.2,1.8-1.2,1.6-2.3C7.9,13.5,6.8,12.8,5.7,13z M6.3,15.9   c-0.5,0.1-1.1-0.3-1.2-0.8C5,14.6,5.4,14,5.9,13.9c0.5-0.1,1.1,0.3,1.2,0.8S6.8,15.8,6.3,15.9z"/></g></svg>