<?xml version="1.0" ?><!DOCTYPE svg  PUBLIC '-//W3C//DTD SVG 1.1//EN'  'http://www.w3.org/Graphics/SVG/1.1/DTD/svg11.dtd'><svg enable-background="new 0 0 91 91" height="91px" id="Layer_1" version="1.1" viewBox="0 0 91 91" width="91px" xml:space="preserve" xmlns="http://www.w3.org/2000/svg" xmlns:xlink="http://www.w3.org/1999/xlink"><g><g><path d="M1176.678-494.2v5.088c0.486-0.568,0.857-1.315,0.984-2.31C1177.83-492.746,1177.371-493.619,1176.678-494.2z    " fill="none"/></g><g><g><path d="M1369.096-471.334v1.064c0,0.268-0.217,0.485-0.484,0.485h3.09c0.268,0,0.486-0.218,0.486-0.485v-1.064     c0-0.267-0.219-0.485-0.486-0.485h-3.09C1368.879-471.819,1369.096-471.601,1369.096-471.334z" fill="#9A663C"/><path d="M1366.006-471.334v1.064c0,0.268,0.218,0.485,0.486,0.485h2.119c0.268,0,0.484-0.218,0.484-0.485v-1.064     c0-0.267-0.217-0.485-0.484-0.485h-2.119C1366.224-471.819,1366.006-471.601,1366.006-471.334z" fill="#BC7D48"/></g><path d="M1369.256-462.074c15.322,0,27.789-12.465,27.789-27.787c0-15.323-12.467-27.788-27.789-27.788    s-27.787,12.465-27.787,27.788C1341.469-474.539,1353.934-462.074,1369.256-462.074z M1369.256-515.462    c14.116,0,25.6,11.484,25.6,25.601s-11.483,25.601-25.6,25.601c-14.117,0-25.601-11.484-25.601-25.601    S1355.139-515.462,1369.256-515.462z" fill="#594A42"/><path d="M1369.256-466.684c12.78,0,23.178-10.397,23.178-23.178s-10.397-23.178-23.178-23.178    c-12.779,0-23.178,10.397-23.178,23.178S1356.477-466.684,1369.256-466.684z M1369.256-511.581    c11.977,0,21.721,9.743,21.721,21.72s-9.744,21.72-21.721,21.72c-11.976,0-21.721-9.743-21.721-21.72    S1357.28-511.581,1369.256-511.581z" fill="#594A42"/><path d="M1369.256-473.199c9.188,0,16.662-7.475,16.662-16.662c0-9.188-7.475-16.663-16.662-16.663    s-16.662,7.475-16.662,16.663C1352.594-480.674,1360.068-473.199,1369.256-473.199z M1369.256-505.066    c8.383,0,15.203,6.82,15.203,15.205c0,0.659-0.056,1.305-0.138,1.942h-30.131c-0.082-0.638-0.139-1.283-0.139-1.942    C1354.052-498.246,1360.872-505.066,1369.256-505.066z M1384.063-486.461c-0.289,1.259-0.732,2.459-1.313,3.577h-26.987    c-0.58-1.118-1.023-2.318-1.313-3.577H1384.063z M1381.895-481.426c-2.729,4.077-7.374,6.769-12.639,6.769    c-5.264,0-9.91-2.691-12.64-6.769H1381.895z" fill="#594A42"/><circle cx="1369.256" cy="-509.755" fill="#594A42" r="0.609"/><path d="M1371.701-472.547h-5.209c-0.67,0-1.215,0.544-1.215,1.213v1.064c0,0.67,0.545,1.214,1.215,1.214h5.209    c0.671,0,1.215-0.544,1.215-1.214v-1.064C1372.916-472.003,1372.372-472.547,1371.701-472.547z" fill="#594A42"/></g><g><g><path d="M1494.596-523.797h-4.361l-7.227-6.461c-0.188-0.166-0.426-0.258-0.676-0.258h-10.92l0.932-4.56     c0.041-0.29-0.045-0.584-0.236-0.807c-0.193-0.221-0.473-0.349-0.766-0.349h-7.697c-0.293,0-0.57,0.128-0.764,0.349     c-0.193,0.223-0.279,0.517-0.236,0.807l0.932,4.56h-10.922c-0.25,0-0.488,0.092-0.674,0.258l-7.133,6.375h-9.867     c-0.334,0-0.645,0.163-0.834,0.437c-0.189,0.275-0.23,0.625-0.111,0.936l13.449,23.046c0.031,0.078,0.074,0.145,0.121,0.211     l2.699,18.15c0.07,0.498,0.498,0.869,1,0.869h1.172v4.047h-1.172c-0.473,0-0.883,0.327-0.986,0.788l-6.561,24.526     c-0.277,1.229,0.014,2.5,0.801,3.482c0.785,0.985,1.959,1.551,3.221,1.551h39.428c1.26,0,2.436-0.565,3.223-1.551     c0.785-0.982,1.078-2.253,0.799-3.482l-6.561-24.526c-0.105-0.461-0.514-0.788-0.986-0.788h-1.172v-4.047h1.172     c0.504,0,0.93-0.371,1.002-0.869l5.254-35.95h4.658c2.244,0,4.068,1.825,4.068,4.068v13.259c0,2.244-1.824,4.067-4.068,4.067     h-3.086c-1.861,0-3.371,1.51-3.371,3.372c0,1.863,1.51,3.374,3.371,3.374h3.086c5.963,0,10.813-4.853,10.813-10.813v-13.259     C1505.408-518.947,1500.559-523.797,1494.596-523.797z M1481.945-528.493l5.156,4.61h-6.739c-0.001,0-0.001,0-0.001-0.001     l-2.533-4.609H1481.945z M1470.174-534.207l-0.758,3.354h-3.844l-0.76-3.354H1470.174z M1476.357-528.493     c0.008,0.094,0.033,0.188,0.082,0.275l2.383,4.335h-22.567l1.858-4.61H1476.357z M1478.768-521.859l-3.679,39.604h-15.164     l-3.741-39.604H1478.768z M1453.039-528.493h3.621l-1.783,4.422c-0.025,0.062-0.031,0.125-0.037,0.188h-3.262h-3.693     L1453.039-528.493z M1447.963-503.883l-0.002,0.003l-11.512-17.979h7.91h0.877h0.145h1.021h4.016l-1.957,14.331L1447.963-503.883     z M1449.508-500.239l2.953-21.62h2.365l3.743,39.604h-6.388L1449.508-500.239z M1447.779-447.863     c-0.643,0-1.24-0.287-1.641-0.788s-0.549-1.148-0.408-1.773l6.383-23.738h6.52l-3.844,26.3H1447.779z M1456.152-447.863     l3.844-26.3h15.043l3.848,26.3H1456.152z M1482.873-474.163l6.383,23.738c0.143,0.625-0.008,1.272-0.408,1.773     s-0.998,0.788-1.641,0.788h-6.957l-3.848-26.3H1482.873z M1481.16-476.187h-27.334v-4.047h27.334V-476.187z M1488.568-521.749     l-0.361,2.523l-0.148,1.027l-0.145,1.01l-5.109,34.933h-6.36l3.679-39.604h5.646h1.18h1.635L1488.568-521.749z M1503.385-499.726     c0,4.846-3.943,8.789-8.789,8.789h-3.086c-0.742,0-1.348-0.604-1.348-1.35c0-0.743,0.605-1.349,1.348-1.349h3.086     c3.359,0,6.092-2.731,6.092-6.091v-13.259c0-3.358-2.732-6.091-6.092-6.091h-4.367l0.387-2.698h3.98     c4.846,0,8.789,3.942,8.789,8.789V-499.726z" fill="#594A42"/><path d="M1467.494-456.17c2.695,0,4.889-2.193,4.889-4.891c0-2.696-2.193-4.89-4.889-4.89     c-2.697,0-4.891,2.193-4.891,4.89C1462.604-458.363,1464.797-456.17,1467.494-456.17z M1467.494-464.602     c1.951,0,3.539,1.589,3.539,3.541c0,1.953-1.588,3.541-3.539,3.541c-1.953,0-3.541-1.588-3.541-3.541     C1463.953-463.013,1465.541-464.602,1467.494-464.602z" fill="#594A42"/><path d="M1467.494-458.588c1.363,0,2.473-1.108,2.473-2.473s-1.109-2.474-2.473-2.474     c-1.365,0-2.475,1.109-2.475,2.474S1466.129-458.588,1467.494-458.588z M1467.494-462.859c0.99,0,1.799,0.806,1.799,1.799     c0,0.992-0.809,1.798-1.799,1.798c-0.992,0-1.799-0.806-1.799-1.798C1465.695-462.054,1466.502-462.859,1467.494-462.859z" fill="#594A42"/></g></g><path d="M1175.143-498.91L1175.143-498.91c3.497,0,6.342,2.778,6.342,6.194v2.412c0,3.415-2.845,6.195-6.342,6.195   l0,0c-0.551,0-0.995,0.435-0.995,0.971c0,0.538,0.444,0.973,0.995,0.973c4.594,0,8.332-3.65,8.332-8.139v-2.412   c0-4.487-3.738-8.139-8.332-8.139c-0.551,0-0.995,0.436-0.995,0.972C1174.147-499.346,1174.592-498.91,1175.143-498.91z" fill="#594A42"/><path d="M1182.381-475.531h-13.895c3.178-2.876,5.125-6.907,5.371-11.186c0.443-0.014,0.873-0.097,1.285-0.222   c2.003-0.608,3.515-2.444,3.515-4.571s-1.512-3.963-3.515-4.572c-0.404-0.122-0.823-0.201-1.258-0.218v-10.452   c0-0.604-0.49-1.094-1.094-1.094h-40.52c-0.604,0-1.094,0.49-1.094,1.094v19.111c0,4.618,1.993,9.027,5.399,12.109h-13.896   c-0.604,0-1.094,0.489-1.094,1.094c0,6.565,5.484,6.565,9.891,6.565l40.424-0.003l1.682,0.003c4.406,0,9.891,0,9.891-6.565   C1183.475-475.042,1182.984-475.531,1182.381-475.531z M1173.885-494.35c0.451,0.025,0.878,0.148,1.258,0.357   c0.896,0.495,1.525,1.428,1.525,2.483s-0.629,1.988-1.525,2.482c-0.38,0.209-0.807,0.332-1.258,0.357V-494.35z M1133.365-505.658   h38.332v2.436h-38.332V-505.658z M1139.227-476.188c-3.67-2.664-5.861-6.945-5.861-11.453v-14.124h38.332v14.124   c0,4.508-2.191,8.789-5.86,11.453c-0.228,0.165-0.368,0.401-0.423,0.656h-25.766   C1139.595-475.786,1139.453-476.022,1139.227-476.188z M1173.584-470.059l-40.424-0.003l-1.682,0.003   c-4.816,0-7.199-0.335-7.631-3.285h57.367C1180.784-470.394,1178.4-470.059,1173.584-470.059z" fill="#594A42"/><path d="M1384.16-607.217l-4.038-0.09c0.075,0.06,0.156,0.107,0.243,0.145l4.348,0.096   C1384.52-607.066,1384.328-607.119,1384.16-607.217z" fill="#E5DFDA"/><path d="M1389.02-579.861c0.402,0,0.729-0.326,0.729-0.729v-15.464c0-0.403-0.326-0.729-0.729-0.729h-43.252   c-0.404,0-0.729,0.327-0.729,0.729v15.464c0,0.403,0.325,0.729,0.729,0.729H1389.02z M1346.496-595.326h41.793v14.006h-41.793   V-595.326z" fill="#594637"/><path d="M1367.393-592.592c-2.545,0-4.617,2.072-4.617,4.617c0,2.546,2.072,4.617,4.617,4.617   c2.546,0,4.617-2.07,4.617-4.617C1372.01-590.521,1369.938-592.592,1367.393-592.592z M1367.393-584.816   c-1.742,0-3.16-1.416-3.16-3.159c0-1.742,1.418-3.159,3.16-3.159s3.158,1.417,3.158,3.159   C1370.551-586.232,1369.135-584.816,1367.393-584.816z" fill="#594637"/><path d="M1399.072-648.447c-2.211,0-4.01,1.799-4.01,4.01v11.976c0,1.522,0.854,2.85,2.105,3.528   c0.254,0.138,0.525,0.246,0.811,0.326v1.127h-5.328h-8.019c-2.265,0-4.392,0.881-5.992,2.482l-2.603,2.603   c-0.143,0.142-0.291,0.276-0.443,0.403c-1.125,0.931-2.523,1.438-4.002,1.438h-0.469h-1.553v-1c0-0.989-0.801-1.791-1.79-1.791   s-1.79,0.802-1.79,1.791v4.592c-5.318,0.464-10.113,3.54-12.736,8.271c-0.131,0.235-0.16,0.496-0.111,0.74h-16.621   c-1.557,0-2.824,1.267-2.824,2.823v2.223c0,1.557,1.268,2.823,2.824,2.823h1.709v22.253c0,0.604,0.49,1.093,1.095,1.093   c0.603,0,1.093-0.489,1.093-1.093v-22.253h53.949v24.589h-57.846c-1.557,0-2.824,1.267-2.824,2.824v2.222   c0,1.557,1.268,2.824,2.824,2.824h61.742c1.559,0,2.824-1.267,2.824-2.824v-2.222c0-1.557-1.266-2.824-2.824-2.824h-1.709v-24.589   h1.709c1.559,0,2.824-1.267,2.824-2.823v-2.223c0-1.557-1.266-2.823-2.824-2.823h-16.621c0.049-0.244,0.019-0.505-0.113-0.74   c-2.493-4.5-6.951-7.509-11.959-8.192v-1.485h2.021c2.264,0,4.391-0.881,5.992-2.481l2.602-2.603   c0.01-0.01,0.021-0.019,0.031-0.029c1.184-1.168,2.75-1.813,4.415-1.813h1.221h13.22c0.604,0,1.092-0.489,1.092-1.093v-2.221   c1.682-0.478,2.916-2.022,2.916-3.854v-11.976C1403.08-646.648,1401.281-648.447,1399.072-648.447z M1398.9-572.667v2.222   c0,0.352-0.285,0.637-0.637,0.637h-61.742c-0.352,0-0.637-0.285-0.637-0.637v-2.222c0-0.352,0.285-0.637,0.637-0.637h61.742   C1398.615-573.304,1398.9-573.019,1398.9-572.667z M1398.9-605.127v2.223c0,0.351-0.285,0.636-0.637,0.636h-61.742   c-0.352,0-0.637-0.285-0.637-0.636v-2.223c0-0.351,0.285-0.636,0.637-0.636h61.742C1398.615-605.763,1398.9-605.478,1398.9-605.127   z M1379.301-608.16c0.042,0.069,0.083,0.141,0.125,0.21h-24.068c0.043-0.069,0.084-0.141,0.127-0.21   c2.536-4.135,7.04-6.683,11.908-6.683C1372.262-614.843,1376.766-612.295,1379.301-608.16z M1400.895-632.461   c0,1.005-0.818,1.823-1.822,1.823c-1.006,0-1.824-0.818-1.824-1.823v-11.976c0-1.005,0.818-1.822,1.824-1.822   c1.004,0,1.822,0.817,1.822,1.822V-632.461z" fill="#594637"/><g><g><path d="M1269.759-568.359h-5.107c-0.201,0-0.364,0.163-0.364,0.365c0,0.201,0.163,0.364,0.364,0.364h5.107     c0.202,0,0.364-0.163,0.364-0.364C1270.123-568.197,1269.961-568.359,1269.759-568.359z" fill="#594A42"/><path d="M1261.413-563.244c0-0.201-0.163-0.364-0.364-0.364h-1.34c-0.201,0-0.365,0.163-0.365,0.364     c0,0.202,0.164,0.365,0.365,0.365h1.34C1261.25-562.879,1261.413-563.042,1261.413-563.244z" fill="#594A42"/><path d="M1253.02-563.402c0-0.201-0.162-0.365-0.363-0.365h-1.34c-0.202,0-0.365,0.165-0.365,0.365     c0,0.201,0.163,0.364,0.365,0.364h1.34C1252.857-563.038,1253.02-563.201,1253.02-563.402z" fill="#594A42"/><path d="M1262.633-570.6h2.256c0.201,0,0.365-0.163,0.365-0.365c0-0.201-0.164-0.364-0.365-0.364h-2.256     c-0.202,0-0.365,0.163-0.365,0.364C1262.268-570.762,1262.431-570.6,1262.633-570.6z" fill="#594A42"/><path d="M1272.016-572.397h-2.257c-0.201,0-0.364,0.163-0.364,0.364c0,0.203,0.163,0.365,0.364,0.365h2.257     c0.201,0,0.365-0.163,0.365-0.365C1272.381-572.234,1272.217-572.397,1272.016-572.397z" fill="#594A42"/><path d="M1247.549-560.401h-2.258c-0.201,0-0.364,0.163-0.364,0.364c0,0.202,0.163,0.365,0.364,0.365h2.258     c0.201,0,0.363-0.163,0.363-0.365C1247.912-560.239,1247.75-560.401,1247.549-560.401z" fill="#594A42"/><path d="M1241.927-560.283h-2.257c-0.201,0-0.365,0.164-0.365,0.365c0,0.201,0.164,0.365,0.365,0.365h2.257     c0.202,0,0.364-0.164,0.364-0.365C1242.291-560.119,1242.129-560.283,1241.927-560.283z" fill="#594A42"/><path d="M1250.279-566.339h-2.256c-0.202,0-0.365,0.163-0.365,0.364c0,0.202,0.163,0.365,0.365,0.365h2.256     c0.202,0,0.365-0.163,0.365-0.365C1250.645-566.177,1250.481-566.339,1250.279-566.339z" fill="#594A42"/><path d="M1267.146-564.203h-2.258c-0.201,0-0.363,0.164-0.363,0.365c0,0.201,0.162,0.365,0.363,0.365h2.258     c0.201,0,0.364-0.165,0.364-0.365C1267.511-564.039,1267.348-564.203,1267.146-564.203z" fill="#594A42"/><path d="M1262.751-560.757h-2.257c-0.201,0-0.364,0.163-0.364,0.364c0,0.202,0.163,0.365,0.364,0.365h2.257     c0.202,0,0.364-0.163,0.364-0.365C1263.115-560.594,1262.953-560.757,1262.751-560.757z" fill="#594A42"/><path d="M1228.545-563.846h-2.257c-0.202,0-0.364,0.163-0.364,0.364c0,0.202,0.162,0.365,0.364,0.365h2.257     c0.201,0,0.365-0.163,0.365-0.365C1228.91-563.683,1228.746-563.846,1228.545-563.846z" fill="#594A42"/><path d="M1234.602-561.827h-2.256c-0.201,0-0.365,0.163-0.365,0.365c0,0.201,0.164,0.364,0.365,0.364h2.256     c0.202,0,0.365-0.163,0.365-0.364C1234.967-561.664,1234.804-561.827,1234.602-561.827z" fill="#594A42"/><path d="M1258.594-566.102h-3.682c-0.201,0-0.365,0.163-0.365,0.364c0,0.203,0.164,0.365,0.365,0.365h3.682     c0.201,0,0.365-0.163,0.365-0.365C1258.959-565.939,1258.795-566.102,1258.594-566.102z" fill="#594A42"/><path d="M1266.434-574.4h3.682c0.201,0,0.363-0.163,0.363-0.364c0-0.203-0.162-0.365-0.363-0.365h-3.682     c-0.201,0-0.365,0.163-0.365,0.365C1266.068-574.563,1266.232-574.4,1266.434-574.4z" fill="#594A42"/><path d="M1256.574-560.877h-3.682c-0.201,0-0.364,0.163-0.364,0.365c0,0.201,0.163,0.364,0.364,0.364h3.682     c0.202,0,0.365-0.163,0.365-0.364C1256.939-560.714,1256.776-560.877,1256.574-560.877z" fill="#594A42"/><path d="M1241.49-562.879h3.684c0.201,0,0.363-0.163,0.363-0.365c0-0.201-0.162-0.364-0.363-0.364h-3.684     c-0.201,0-0.363,0.163-0.363,0.364C1241.127-563.042,1241.289-562.879,1241.49-562.879z" fill="#594A42"/><g><path d="M1221.776-564.249c2.845,4.283,7.613,6.842,12.757,6.842h24.953c5.143,0,9.911-2.559,12.755-6.842      c2.45-3.691,3.161-8.199,2.036-12.408h-54.537C1218.615-572.448,1219.326-567.94,1221.776-564.249z" fill="none"/><path d="M1228.86-593.838l-8.439,15.177c-0.177,0.419-0.327,0.846-0.464,1.275h54.104      c-0.137-0.429-0.287-0.855-0.464-1.275l-8.438-15.177H1228.86z" fill="none"/><path d="M1264.967-623.857l8.096-14.698c0.189-0.477,0.136-0.994-0.149-1.423c-0.29-0.44-0.76-0.691-1.286-0.691      h-49.235c-0.526,0-0.995,0.251-1.286,0.69c-0.285,0.43-0.339,0.947-0.15,1.423l8.097,14.698H1264.967z" fill="none"/><path d="M1277.887-596.97c0.166-0.033,0.317-0.098,0.458-0.177c0.464-0.261,0.769-0.739,0.801-1.275      c0.009-0.132,0.006-0.266-0.021-0.401c-0.146-0.735-3.39-3.294-4.138-3.294c-0.102,0-0.205,0.01-0.309,0.03      c-0.26,0.051-0.486,0.169-0.678,0.326c-0.402,0.326-0.629,0.835-0.575,1.375c0.005,0.051,0.005,0.102,0.015,0.153      C1273.606-599.399,1277.018-596.796,1277.887-596.97z" fill="none"/><polyline fill="none" points="1261.822,-609.469 1261.873,-609.588 1261.873,-611.021 1261.873,-609.588 1267.418,-622.399       1266.681,-622.399 1264.232,-622.399 1229.785,-622.399 1227.338,-622.399 1226.6,-622.399 1232.195,-609.469     "/><path d="M1275.5-592.774c-0.131,0-0.254,0.021-0.375,0.05c-0.504,0.124-0.91,0.488-1.094,0.966      c-0.066,0.174-0.107,0.362-0.107,0.56c0,0.869,2.12,3.149,2.989,3.149c0.175,0,0.341-0.035,0.499-0.088      c0.487-0.164,0.865-0.558,1.008-1.055c0.041-0.138,0.068-0.281,0.068-0.432C1278.488-590.493,1276.367-592.774,1275.5-592.774z" fill="none"/><path d="M1279.262-588.726c-0.066-0.024-0.133-0.061-0.198-0.092c0.095-0.251,0.153-0.521,0.153-0.806      c0-1.271-2.447-3.879-3.717-3.879c-0.294,0-0.572,0.061-0.832,0.161c-1.239-1.74-2.503-3.984-3.744-6.192      c-1.097-1.952-2.168-3.854-3.244-5.474c0.555,0.454,1.112,0.927,1.666,1.398c1.15,0.979,2.273,1.933,3.369,2.728      c-0.039,0.256-0.044,0.522,0.01,0.792c0.215,1.074,3.758,3.881,4.853,3.881c0.148,0,0.3-0.014,0.452-0.045      c0.475-0.095,0.885-0.331,1.199-0.655c0.189,0.035,0.378,0.062,0.564,0.072c0.015,0.001,0.029,0.001,0.043,0.001      c0.383,0,0.705-0.299,0.727-0.687c0.023-0.401-0.283-0.747-0.686-0.77c-0.004,0-0.01-0.001-0.016-0.002      c0.021-0.219,0.023-0.443-0.022-0.671c-0.243-1.22-4.036-4.09-5.304-3.836c-0.449,0.089-0.838,0.307-1.145,0.603      c-1.016-0.75-2.064-1.642-3.101-2.522c-2.317-1.971-4.527-3.847-6.61-4.503c-0.104-0.053-0.209-0.097-0.314-0.14l5.831-13.474      c0.098-0.226,0.075-0.485-0.06-0.69c-0.135-0.205-0.363-0.329-0.609-0.329h-1.113l7.621-13.751      c0.011-0.022,0.021-0.045,0.029-0.067c0.488-1.155,0.364-2.467-0.329-3.511c-0.693-1.045-1.855-1.668-3.108-1.668h-49.235      c-1.253,0-2.415,0.623-3.108,1.667c-0.693,1.043-0.817,2.357-0.331,3.512c0.011,0.022,0.021,0.045,0.031,0.067l7.62,13.751      h-1.113c-0.246,0-0.475,0.124-0.609,0.329c-0.135,0.205-0.158,0.464-0.061,0.69l6.055,13.991l-6.055,13.991      c-0.098,0.225-0.074,0.484,0.061,0.689s0.363,0.329,0.609,0.329h0.996l-8.082,14.329c-2.28,5.417-1.701,11.573,1.551,16.47      c3.25,4.895,8.7,7.819,14.578,7.819h24.953c5.877,0,11.326-2.924,14.576-7.819c3.252-4.897,3.831-11.053,1.551-16.47      l-8.082-14.329h0.996c0.246,0,0.475-0.124,0.609-0.329s0.157-0.464,0.06-0.689l-5.446-12.588c1.9,1.511,3.93,5.114,5.902,8.625      c1.317,2.343,2.598,4.616,3.893,6.413c-0.218,0.353-0.35,0.765-0.35,1.208c0,1.271,2.447,3.878,3.718,3.878      c0.44,0,0.849-0.13,1.2-0.346c0.215,0.122,0.43,0.231,0.646,0.311c0.083,0.03,0.168,0.043,0.252,0.043      c0.296,0,0.576-0.184,0.684-0.478C1279.834-588.169,1279.64-588.587,1279.262-588.726z M1274.217-601.55      c0.174-0.141,0.379-0.248,0.613-0.295c0.094-0.019,0.188-0.027,0.28-0.027c0.677,0,3.61,2.315,3.743,2.981      c0.025,0.122,0.027,0.244,0.02,0.363c-0.029,0.485-0.305,0.917-0.725,1.153c-0.127,0.072-0.264,0.13-0.414,0.16      c-0.786,0.157-3.873-2.197-4.024-2.953c-0.009-0.046-0.009-0.092-0.013-0.139      C1273.648-600.794,1273.854-601.256,1274.217-601.55z M1220.955-638.555c-0.188-0.477-0.135-0.994,0.15-1.423      c0.291-0.439,0.76-0.69,1.286-0.69h49.235c0.526,0,0.996,0.251,1.286,0.691c0.285,0.429,0.339,0.946,0.149,1.423l-8.096,14.698      h-35.915L1220.955-638.555z M1272.241-564.249c-2.844,4.283-7.612,6.842-12.755,6.842h-24.953      c-5.144,0-9.912-2.559-12.757-6.842c-2.45-3.691-3.161-8.199-2.036-12.408h54.537      C1275.402-572.448,1274.691-567.94,1272.241-564.249z M1273.597-578.661c0.177,0.419,0.327,0.846,0.464,1.275h-54.104      c0.137-0.429,0.287-0.855,0.464-1.275l8.439-15.177h36.298L1273.597-578.661z M1232.195-609.469l-5.596-12.931h0.738h2.447      h34.447h2.448h0.737l-5.545,12.812v1.577h0.043l5.502,12.715h-0.501h-2.373h-35.069h-2.374h-0.501l5.502-12.715h20.83v-1.577      L1232.195-609.469z M1278.146-589.344c-0.126,0.435-0.456,0.78-0.883,0.924c-0.139,0.046-0.284,0.078-0.438,0.078      c-0.761,0-2.618-1.998-2.618-2.759c0-0.173,0.035-0.337,0.094-0.49c0.16-0.419,0.518-0.738,0.959-0.846      c0.105-0.025,0.214-0.043,0.327-0.043c0.761,0,2.618,1.999,2.618,2.759C1278.205-589.59,1278.18-589.464,1278.146-589.344z" fill="#594A42"/></g></g></g><g><g><path d="M1273.6-496.438c-0.034,0-0.066,0.008-0.1,0.011c0.115,0.849,0.181,1.713,0.181,2.593     s-0.065,1.744-0.181,2.593c0.033,0.001,0.065,0.01,0.1,0.01h6.051c1.07,0,1.943-0.872,1.943-1.944v-1.318     c0-1.071-0.873-1.943-1.943-1.943H1273.6z" fill="none"/><path d="M1254.547-484.796c-4.983,0-9.038-4.055-9.038-9.038c0-0.403-0.326-0.729-0.729-0.729     c-0.402,0-0.729,0.326-0.729,0.729c0,5.787,4.709,10.496,10.496,10.496c0.404,0,0.729-0.325,0.729-0.729     S1254.951-484.796,1254.547-484.796z" fill="none"/><path d="M1271.037-497.728c-1.766-7.474-8.485-13.053-16.49-13.053c-9.344,0-16.945,7.603-16.945,16.946     s7.602,16.946,16.945,16.946c8.005,0,14.727-5.581,16.49-13.053c0.1-0.424,0.188-0.852,0.255-1.286     c0.132-0.85,0.202-1.721,0.202-2.607s-0.07-1.758-0.202-2.608C1271.225-496.878,1271.137-497.306,1271.037-497.728z      M1254.547-480.635c-7.289,0-13.199-5.909-13.199-13.199s5.91-13.199,13.199-13.199c7.291,0,13.2,5.909,13.2,13.199     S1261.838-480.635,1254.547-480.635z" fill="none"/><path d="M1273.6-498.625c-0.176,0-0.348,0.015-0.518,0.037c-2.119-8.258-9.625-14.379-18.535-14.379     c-10.549,0-19.133,8.583-19.133,19.133c0,10.549,8.584,19.133,19.133,19.133c8.91,0,16.416-6.121,18.535-14.379     c0.17,0.021,0.342,0.035,0.518,0.035h6.051c0.704,0,1.365-0.182,1.946-0.494c0.826-0.582,1.854-1.803,1.854-4.296     c0-2.58-0.861-3.669-1.861-4.298c-0.58-0.312-1.238-0.492-1.939-0.492H1273.6z M1271.292-491.227     c-0.067,0.435-0.155,0.862-0.255,1.286c-1.764,7.472-8.485,13.053-16.49,13.053c-9.344,0-16.945-7.603-16.945-16.946     s7.602-16.946,16.945-16.946c8.005,0,14.725,5.579,16.49,13.053c0.1,0.422,0.188,0.85,0.255,1.285     c0.132,0.851,0.202,1.722,0.202,2.608S1271.424-492.076,1271.292-491.227z M1281.594-494.494v1.318     c0,1.072-0.873,1.944-1.943,1.944h-6.051c-0.034,0-0.066-0.009-0.1-0.01c0.115-0.849,0.181-1.713,0.181-2.593     s-0.065-1.744-0.181-2.593c0.033-0.003,0.065-0.011,0.1-0.011h6.051C1280.721-496.438,1281.594-495.565,1281.594-494.494z" fill="#594A42"/><path d="M1267.747-493.835c0-7.29-5.909-13.199-13.2-13.199c-7.289,0-13.199,5.909-13.199,13.199     s5.91,13.199,13.199,13.199C1261.838-480.636,1267.747-486.545,1267.747-493.835z M1255.276-503.603     c0,0.403-0.325,0.729-0.729,0.729c-4.983,0-9.038,4.055-9.038,9.038c0,0.403-0.326,0.729-0.729,0.729     c-0.402,0-0.729-0.326-0.729-0.729c0-5.787,4.709-10.496,10.496-10.496C1254.951-504.331,1255.276-504.006,1255.276-503.603z" fill="#594A42"/><g><path d="M1225.625-506.3c-1.656,3.826-2.578,8.04-2.578,12.466c0,6.327,1.882,12.22,5.105,17.162v-27.894      C1227.139-504.945,1226.297-505.534,1225.625-506.3z" fill="none"/><path d="M1233.742-504.404v34.192c5.553,4.897,12.836,7.878,20.805,7.878c17.37,0,31.501-14.131,31.501-31.5      c0-17.37-14.131-31.5-31.501-31.5c-6.565,0-12.666,2.022-17.719,5.472c1.16,2.413,1.773,5.359,1.773,7.79      C1238.602-508.075,1236.844-505.331,1233.742-504.404z" fill="none"/><path d="M1230.34-470.206v3.308c0,0.334,0.273,0.606,0.607,0.606s0.607-0.272,0.607-0.606v-2.124      C1231.139-469.405,1230.734-469.801,1230.34-470.206z" fill="none"/><path d="M1232.461-506.347c2.624-0.455,3.953-2.382,3.953-5.727c0-2.157-0.535-4.533-1.391-6.453      c-3.412,2.703-6.252,6.092-8.309,9.962c0.587,1.091,1.512,1.813,2.793,2.13c0.488,0.12,0.832,0.559,0.832,1.062v31.668      c0.391,0.469,0.798,0.923,1.215,1.369v-32.934C1231.555-505.802,1231.938-506.256,1232.461-506.347z" fill="none"/><path d="M1254.547-527.685c-7.004,0-13.517,2.138-18.922,5.795c0.453,0.604,0.851,1.293,1.203,2.027      c5.053-3.45,11.153-5.472,17.719-5.472c17.37,0,31.501,14.13,31.501,31.5c0,17.369-14.131,31.5-31.501,31.5      c-7.969,0-15.252-2.98-20.805-7.878v3.05c5.744,4.491,12.965,7.178,20.805,7.178c18.666,0,33.852-15.187,33.852-33.851      C1288.398-512.5,1273.213-527.685,1254.547-527.685z" fill="#594A42"/><path d="M1236.828-519.863c-0.353-0.733-0.75-1.422-1.203-2.027c-1.162-1.55-2.649-2.577-4.436-2.577      c-4.771,0-7.41,7.328-7.41,12.393c0,1.188,0.166,2.245,0.457,3.192c-2.261,4.536-3.54,9.644-3.54,15.047      c0,8.001,2.797,15.359,7.456,21.159v5.777c0,1.54,1.254,2.794,2.795,2.794c1.54,0,2.795-1.254,2.795-2.794v-0.264v-3.05v-34.192      c3.102-0.927,4.859-3.671,4.859-7.669C1238.602-514.504,1237.988-517.45,1236.828-519.863z M1228.152-476.672      c-3.224-4.941-5.105-10.834-5.105-17.162c0-4.427,0.922-8.641,2.578-12.466c0.672,0.766,1.514,1.355,2.527,1.734V-476.672z       M1232.461-506.347c-0.523,0.091-0.906,0.545-0.906,1.077v32.934v3.314v2.124c0,0.334-0.273,0.606-0.607,0.606      s-0.607-0.272-0.607-0.606v-3.308v-3.499v-31.668c0-0.503-0.344-0.941-0.832-1.062c-1.281-0.317-2.206-1.039-2.793-2.13      c-0.475-0.882-0.729-2.006-0.742-3.384c-0.001-0.043-0.007-0.082-0.007-0.125c0-4.594,2.41-10.206,5.224-10.206      c0.957,0,1.863,0.659,2.648,1.696c0.439,0.581,0.838,1.279,1.186,2.057c0.855,1.92,1.391,4.296,1.391,6.453      C1236.414-508.729,1235.085-506.802,1232.461-506.347z" fill="#594A42"/></g></g></g><g><g><path d="M1388.582-407.967h-39.177v-7.07h39.177V-407.967z M1351.49-407.052h35.007v-5.9h-35.007V-407.052z" fill="#594637"/></g><path d="M1394.443-345.104h-51.352l1.08-57.387l6.546-6.441h37.573l5.074,6.52L1394.443-345.104z     M1345.217-347.188h47.104l-1.027-54.49l-4.021-5.167h-35.699l-5.331,5.246L1345.217-347.188z" fill="#594637"/><path d="M1369.463-365.331c-6.889,0-12.492-5.605-12.492-12.494c0-6.889,5.604-12.493,12.492-12.493    c6.89,0,12.494,5.604,12.494,12.493C1381.957-370.936,1376.353-365.331,1369.463-365.331z M1369.463-388.818    c-6.062,0-10.992,4.932-10.992,10.993c0,6.062,4.931,10.994,10.992,10.994c6.063,0,10.994-4.932,10.994-10.994    C1380.457-383.887,1375.525-388.818,1369.463-388.818z" fill="#594637"/><rect fill="#594637" height="1.304" width="24.256" x="1368.145" y="-402.697"/><rect fill="#594637" height="3.346" width="1.303" x="1354.658" y="-413.088"/><rect fill="#594637" height="3.346" width="1.303" x="1362.602" y="-413.088"/><rect fill="#594637" height="3.346" width="1.303" x="1370.545" y="-413.088"/><rect fill="#594637" height="3.346" width="1.302" x="1378.489" y="-413.088"/><rect fill="#594637" height="3.346" width="1.303" x="1382.461" y="-413.088"/><rect fill="#594637" height="3.346" width="1.302" x="1374.518" y="-413.088"/><rect fill="#594637" height="3.346" width="1.302" x="1366.574" y="-413.088"/><rect fill="#594637" height="3.346" width="1.304" x="1358.629" y="-413.088"/><rect fill="#594637" height="1.303" width="37.053" x="1344.154" y="-351.995"/><rect fill="#594637" height="1.303" width="3.591" x="1383.479" y="-351.995"/><rect fill="#594637" height="1.304" width="7.646" x="1358.225" y="-402.697"/></g><g><g><g><rect fill="none" height="1.12" width="18.95" x="1241.213" y="-418.001"/><path d="M1235.633-393.115l0.104,0.231l-0.016,0.252c0,0.012-0.008,0.099-0.024,0.257      c-0.602,5.764-3.422,34.833-0.933,50.235h31.918c2.494-15.434-0.333-44.493-0.936-50.254c-0.015-0.144-0.022-0.223-0.023-0.233      l-0.016-0.255l0.104-0.233c0.961-2.159,1.547-5.621,1.887-8.967h-33.952C1234.059-398.921,1234.623-395.388,1235.633-393.115z" fill="none"/></g><g><path d="M1250.984-369.044c-7.996,0-14.26-3.661-14.26-8.335c0-4.673,6.264-8.334,14.26-8.334      c1.935,0,3.82,0.223,5.604,0.663c2.111,0.521,3.994,1.344,5.446,2.38c2.099,1.499,3.208,3.328,3.208,5.291      c0,1.969-1.115,3.803-3.226,5.305c-1.44,1.024-3.312,1.841-5.409,2.362C1254.817-369.269,1252.926-369.044,1250.984-369.044z       M1250.984-384.213c-6.917,0-12.76,3.129-12.76,6.834c0,3.705,5.843,6.835,12.76,6.835c1.819,0,3.59-0.21,5.262-0.625      c1.918-0.476,3.612-1.211,4.901-2.128c1.184-0.842,2.595-2.234,2.595-4.082c0-1.842-1.402-3.23-2.579-4.07      c-1.299-0.927-3.006-1.668-4.935-2.145C1254.563-384.005,1252.798-384.213,1250.984-384.213z" fill="#594637"/></g></g><g><path d="M1264.496-353.15h-5.107c-0.201,0-0.365,0.163-0.365,0.365c0,0.2,0.164,0.363,0.365,0.363h5.107     c0.201,0,0.364-0.163,0.364-0.363C1264.86-352.987,1264.697-353.15,1264.496-353.15z" fill="#594637"/><path d="M1256.15-348.035c0-0.201-0.163-0.364-0.365-0.364h-1.339c-0.202,0-0.364,0.163-0.364,0.364     c0,0.202,0.162,0.365,0.364,0.365h1.339C1255.987-347.67,1256.15-347.833,1256.15-348.035z" fill="#594637"/><path d="M1247.758-348.193c0-0.2-0.164-0.364-0.365-0.364h-1.34c-0.201,0-0.364,0.164-0.364,0.364     c0,0.201,0.163,0.364,0.364,0.364h1.34C1247.594-347.829,1247.758-347.992,1247.758-348.193z" fill="#594637"/><path d="M1257.369-355.391h2.258c0.201,0,0.363-0.163,0.363-0.365c0-0.201-0.162-0.363-0.363-0.363h-2.258     c-0.201,0-0.364,0.162-0.364,0.363C1257.005-355.554,1257.168-355.391,1257.369-355.391z" fill="#594637"/><path d="M1266.753-357.188h-2.257c-0.201,0-0.365,0.162-0.365,0.363c0,0.202,0.164,0.365,0.365,0.365h2.257     c0.202,0,0.364-0.163,0.364-0.365C1267.117-357.025,1266.955-357.188,1266.753-357.188z" fill="#594637"/><path d="M1242.285-345.192h-2.257c-0.201,0-0.364,0.162-0.364,0.363c0,0.202,0.163,0.365,0.364,0.365h2.257     c0.201,0,0.365-0.163,0.365-0.365C1242.65-345.03,1242.486-345.192,1242.285-345.192z" fill="#594637"/><path d="M1245.018-351.131h-2.258c-0.201,0-0.363,0.163-0.363,0.364c0,0.202,0.162,0.365,0.363,0.365h2.258     c0.201,0,0.364-0.163,0.364-0.365C1245.382-350.968,1245.219-351.131,1245.018-351.131z" fill="#594637"/><path d="M1261.883-348.994h-2.256c-0.202,0-0.365,0.165-0.365,0.365c0,0.201,0.163,0.365,0.365,0.365h2.256     c0.201,0,0.365-0.164,0.365-0.365C1262.248-348.829,1262.084-348.994,1261.883-348.994z" fill="#594637"/><path d="M1257.488-345.549h-2.257c-0.201,0-0.364,0.163-0.364,0.364c0,0.202,0.163,0.365,0.364,0.365h2.257     c0.201,0,0.364-0.163,0.364-0.365C1257.853-345.386,1257.689-345.549,1257.488-345.549z" fill="#594637"/><path d="M1253.331-350.893h-3.683c-0.201,0-0.363,0.162-0.363,0.363c0,0.202,0.162,0.365,0.363,0.365h3.683     c0.202,0,0.364-0.163,0.364-0.365C1253.695-350.73,1253.533-350.893,1253.331-350.893z" fill="#594637"/><path d="M1261.17-359.191h3.682c0.202,0,0.365-0.163,0.365-0.364c0-0.202-0.163-0.365-0.365-0.365h-3.682     c-0.201,0-0.363,0.163-0.363,0.365C1260.807-359.354,1260.969-359.191,1261.17-359.191z" fill="#594637"/><path d="M1251.313-345.668h-3.683c-0.201,0-0.364,0.163-0.364,0.365c0,0.201,0.163,0.364,0.364,0.364h3.683     c0.201,0,0.364-0.163,0.364-0.364C1251.677-345.505,1251.514-345.668,1251.313-345.668z" fill="#594637"/><path d="M1236.229-347.67h3.682c0.201,0,0.365-0.163,0.365-0.365c0-0.201-0.164-0.364-0.365-0.364h-3.682     c-0.201,0-0.365,0.163-0.365,0.364C1235.863-347.833,1236.027-347.67,1236.229-347.67z" fill="#594637"/></g></g><g><path d="M1478.184-338.531h-17.016c-11.727,0-22.16-4.217-22.16-7.54c0-1.609,2.256-2.609,5.885-2.609h49.564    c1.666,0,5.537,0.255,5.537,2.609c0,1.676-2.436,3.563-6.52,5.048C1489.184-339.464,1483.467-338.531,1478.184-338.531z     M1444.893-347.638c-3.145,0-4.844,0.807-4.844,1.566c0,2.167,9.131,6.497,21.119,6.497h17.016c5.168,0,10.752-0.908,14.936-2.43    c4.613-1.678,5.832-3.394,5.832-4.067c0-1.082-2.256-1.566-4.494-1.566H1444.893z" fill="#594637"/><path d="M1470.102-407.879c-6.035,0-10.945,4.909-10.945,10.945c0,6.035,4.91,10.945,10.945,10.945    s10.945-4.91,10.945-10.945C1481.047-402.97,1476.137-407.879,1470.102-407.879z M1470.102-387.06    c-5.453,0-9.873-4.421-9.873-9.874c0-5.454,4.42-9.875,9.873-9.875c5.455,0,9.875,4.421,9.875,9.875    C1479.977-391.48,1475.557-387.06,1470.102-387.06z" fill="#594A42"/><path d="M1470.102-405.562c-4.758,0-8.627,3.87-8.627,8.628c0,4.756,3.869,8.627,8.627,8.627    s8.629-3.871,8.629-8.627C1478.73-401.691,1474.859-405.562,1470.102-405.562z M1470.102-389.021    c-4.369,0-7.914-3.542-7.914-7.913c0-4.37,3.545-7.915,7.914-7.915c4.371,0,7.914,3.545,7.914,7.915    C1478.016-392.563,1474.473-389.021,1470.102-389.021z" fill="#594A42"/><path d="M1454.846-393.118c-1.178,0-2.137,0.959-2.137,2.137c0,1.179,0.959,2.137,2.137,2.137    s2.137-0.958,2.137-2.137C1456.982-392.159,1456.023-393.118,1454.846-393.118z M1454.846-389.559    c-0.785,0-1.422-0.637-1.422-1.423s0.637-1.423,1.422-1.423s1.424,0.637,1.424,1.423S1455.631-389.559,1454.846-389.559z" fill="#594A42"/><path d="M1486.145-393.118c-1.178,0-2.137,0.959-2.137,2.137c0,1.179,0.959,2.137,2.137,2.137    c1.18,0,2.137-0.958,2.137-2.137C1488.281-392.159,1487.324-393.118,1486.145-393.118z" fill="#594A42"/><path d="M1492.586-399.945c0.422-0.443,0.629-1.075,0.506-1.721c-0.143-0.743-0.732-1.355-1.465-1.525    c-0.15-0.035-0.307-0.053-0.457-0.053c-1.08,0-1.959,0.879-1.959,1.959c0,0.516,0.199,0.991,0.537,1.344    c-0.902,0.503-1.516,1.465-1.516,2.568c0,1.62,1.316,2.937,2.938,2.937c1.619,0,2.936-1.316,2.936-2.937    C1494.105-398.479,1493.49-399.442,1492.586-399.945z M1488.945-397.373c0-0.84,0.467-1.57,1.154-1.949v1.771    c0,0.59,0.48,1.07,1.07,1.07c0.588,0,1.068-0.48,1.068-1.07v-1.771c0.688,0.379,1.154,1.109,1.154,1.949    c0,1.228-0.996,2.223-2.223,2.223C1489.941-395.15,1488.945-396.146,1488.945-397.373z M1489.924-401.285    c0-0.688,0.559-1.245,1.246-1.245c0.096,0,0.195,0.012,0.295,0.034c0.467,0.107,0.836,0.497,0.926,0.966    c0.105,0.548-0.152,1.038-0.572,1.296c-0.092,0.056-0.188,0.104-0.293,0.136v0.174v0.359v2.015c0,0.197-0.16,0.356-0.355,0.356    c-0.197,0-0.355-0.159-0.355-0.356v-2.015v-0.359v-0.174c-0.107-0.031-0.205-0.08-0.297-0.136    C1490.164-400.453,1489.924-400.838,1489.924-401.285z" fill="#594A42"/><path d="M1452.131-399.945c0.424-0.443,0.631-1.075,0.508-1.721c-0.143-0.743-0.732-1.355-1.465-1.525    c-0.15-0.035-0.307-0.053-0.459-0.053c-1.078,0-1.957,0.879-1.957,1.959c0,0.516,0.199,0.991,0.537,1.344    c-0.902,0.503-1.516,1.465-1.516,2.568c0,1.62,1.316,2.937,2.936,2.937c1.621,0,2.938-1.316,2.938-2.937    C1453.652-398.479,1453.037-399.442,1452.131-399.945z M1448.492-397.373c0-0.84,0.467-1.57,1.154-1.949v1.771    c0,0.59,0.479,1.07,1.068,1.07s1.07-0.48,1.07-1.07v-1.771c0.688,0.379,1.154,1.109,1.154,1.949c0,1.228-0.996,2.223-2.225,2.223    C1449.488-395.15,1448.492-396.146,1448.492-397.373z M1449.471-401.285c0-0.688,0.557-1.245,1.244-1.245    c0.098,0,0.197,0.012,0.297,0.034c0.465,0.107,0.834,0.497,0.926,0.966c0.105,0.548-0.154,1.038-0.572,1.296    c-0.092,0.056-0.189,0.104-0.293,0.136v0.174v0.359v2.015c0,0.197-0.16,0.356-0.357,0.356c-0.195,0-0.355-0.159-0.355-0.356    v-2.015v-0.359v-0.174c-0.105-0.031-0.203-0.08-0.295-0.136C1449.709-400.453,1449.471-400.838,1449.471-401.285z" fill="#594A42"/><g><path d="M1476.176-397.033h-1.043c0-2.704-2.199-4.903-4.904-4.903c-2.703,0-4.902,2.199-4.902,4.903h-1.043     c0-3.279,2.668-5.946,5.945-5.946C1473.508-402.979,1476.176-400.313,1476.176-397.033z" fill="#594637"/><path d="M1470.229-394.737c-1.24,0-2.25-1.011-2.25-2.253c0-1.24,1.01-2.25,2.25-2.25     c1.242,0,2.252,1.01,2.252,2.25C1472.48-395.748,1471.471-394.737,1470.229-394.737z M1470.229-398.198     c-0.666,0-1.207,0.542-1.207,1.208c0,0.667,0.541,1.21,1.207,1.21c0.668,0,1.209-0.543,1.209-1.21     C1471.438-397.656,1470.896-398.198,1470.229-398.198z" fill="#594637"/><rect fill="#594637" height="3.284" width="0.695" x="1469.881" y="-400.317"/></g><g><path d="M1448.539-360.439c0,1.311,1.027,2.375,2.318,2.455l-1.059-4.592     C1449.051-362.151,1448.539-361.358,1448.539-360.439z" fill="none"/></g><path d="M1507.717-402.646h-0.895v-6.835c1.766-0.825,2.996-2.614,2.996-4.689c0-2.854-2.324-5.176-5.178-5.176    c-2.855,0-5.178,2.322-5.178,5.176c0,2.15,1.318,3.998,3.188,4.779v6.745h-3.854c-7.553-6.186-19.672-10.172-27.018-10.172h-3.129    c-11.268,0-33.787,9.379-33.787,21.695c0,3.968,2.313,7.396,5.656,9.037h-12.748c-2.551,0-3.932,1.38-3.932,3.931    s1.381,3.931,3.932,3.931h23.119c0.535,0.883,1.15,1.479,1.82,1.479h1.826c0.203,0.914,1.018,1.6,1.99,1.6h0.105    c0.973,0,1.787-0.686,1.99-1.6h2.494c0.203,0.914,1.018,1.6,1.99,1.6h0.105c0.973,0,1.787-0.686,1.988-1.6h1.383    c2.172,0,3.756-6.239,3.975-8.307h0.455v28.725c0.063,0.026,0.117,0.052,0.172,0.077h-4.951c0.656-0.383,1.148-1.025,1.324-1.818    l2.607-12.18c0.174-0.786-0.014-1.597-0.518-2.225c-0.504-0.627-1.256-0.988-2.061-0.988h-14.846    c-0.807,0-1.557,0.361-2.061,0.989c-0.504,0.627-0.693,1.438-0.52,2.22l0.277,1.297c-2.242,0.282-3.984,2.197-3.984,4.515    c0,2.512,2.043,4.555,4.555,4.555c0.463,0,0.908-0.07,1.33-0.198l0.432,2.021c0.176,0.79,0.666,1.432,1.322,1.813h-10.758    c-6.422,0-8.709,2.949-8.709,5.708c0,6.823,13.711,11.579,26.014,11.579h18.092c12.127,0,25.641-4.756,25.641-11.579    c0-1.716-0.813-5.708-8.336-5.708h-2.998c0.107-0.025,0.213-0.051,0.338-0.077v-28.725h2.117c5.555,0,10.072-4.519,10.072-10.071    c0-0.73-0.084-1.45-0.234-2.159h2.385c0.543,0,0.984-0.44,0.984-0.984v-7.396C1508.701-402.205,1508.26-402.646,1507.717-402.646z     M1451.109-361.828l0.559,2.616c-0.195,0.107-0.418,0.172-0.658,0.172c-0.771,0-1.4-0.627-1.4-1.399s0.629-1.399,1.4-1.399    C1451.045-361.839,1451.076-361.832,1451.109-361.828z M1451.01-356.954c-1.922,0-3.484-1.564-3.484-3.485    c0-1.804,1.379-3.292,3.139-3.466l0.215,1.002c-1.301,0.069-2.34,1.146-2.34,2.464c0,1.363,1.107,2.471,2.471,2.471    c0.314,0,0.613-0.061,0.891-0.168l0.213,0.999C1451.766-357.021,1451.396-356.954,1451.01-356.954z M1451.76-366.12    c-0.098-0.439,0.008-0.892,0.289-1.241c0.281-0.352,0.699-0.552,1.15-0.552h13.932c0.449,0,0.869,0.2,1.148,0.552    c0.281,0.35,0.387,0.802,0.289,1.244l-2.447,11.431c-0.166,0.75-0.82,1.274-1.59,1.274h-8.732c-0.77,0-1.424-0.524-1.59-1.272    L1451.76-366.12z M1500.854-414.17c0-2.088,1.699-3.786,3.787-3.786s3.787,1.698,3.787,3.786c0,2.089-1.699,3.788-3.787,3.788    S1500.854-412.081,1500.854-414.17z M1505.432-409.059v6.413h-1.391v-6.384c0.197,0.022,0.396,0.037,0.6,0.037    C1504.91-408.992,1505.174-409.019,1505.432-409.059z M1428.102-375.602c-1.896,0-2.765-0.802-2.765-2.553    c0-1.75,0.869-2.554,2.765-2.554h20.267c0.129,1.082,0.692,3.363,1.543,5.106H1428.102z M1456.633-372.288h-0.105    c-0.576,0-1.063-0.37-1.244-0.885h2.594C1457.693-372.658,1457.207-372.288,1456.633-372.288z M1463.213-372.288h-0.105    c-0.576,0-1.063-0.37-1.244-0.885h2.594C1464.273-372.658,1463.787-372.288,1463.213-372.288z M1466.584-374.244h-1.404h-0.379    h-0.375h-2.531h-0.375h-0.379h-2.541h-0.379h-0.375h-2.531h-0.375h-0.379h-1.85c-0.271,0-0.887-1.326-1.578-3.004h17.029    C1467.471-375.57,1466.855-374.244,1466.584-374.244z M1468.618-378.458h-17.941c-0.39-1.076-0.677-1.868-0.81-2.593h19.561    C1469.294-380.326,1469.008-379.534,1468.618-378.458z M1496.037-349.949c2.254,0,6.037,0.443,6.037,3.408    c0,4.684-11.563,9.279-23.342,9.279h-18.092c-11.746,0-23.713-4.683-23.713-9.279c0-2.134,2.396-3.408,6.408-3.408H1496.037z     M1477.482-352.249h-4.18c0.055-0.025,0.109-0.051,0.172-0.077v-28.725h3.992v28.725    C1477.467-352.299,1477.477-352.275,1477.482-352.249z M1485.129-352.249h-6.963c0.004-0.026,0.016-0.05,0.016-0.077v-28.725    h6.932v28.725C1485.113-352.299,1485.123-352.275,1485.129-352.249z M1490.932-352.249h-5.121c0.006-0.026,0.016-0.05,0.016-0.077    v-28.725h5.09v28.725C1490.916-352.299,1490.928-352.275,1490.932-352.249z M1495.494-383.136h-50.559    c-4.404,0-7.986-3.583-7.986-7.986c0-10.731,20.988-19.61,31.701-19.61h3.129c10.713,0,31.703,8.879,31.703,19.61    C1503.482-386.719,1499.898-383.136,1495.494-383.136z M1507.25-394.731h-2.338c-0.828-2.313-2.41-4.483-4.48-6.464h6.818    V-394.731z" fill="#594637"/></g><g><path d="M1133.972-560.479c1.396,1.061,3.114,1.647,4.836,1.647h23.677c1.693,0,3.34-0.533,4.634-1.499    c7.242-5.408,11.382-14.028,11.071-23.059c-0.233-6.833-3.053-13.103-7.496-17.839c8.637,0.389,15.52,7.512,15.52,16.244v3.056    c0,1.982,1.326,3.803,3.27,4.193c0.289,0.058,0.574,0.085,0.853,0.085c2.276,0,4.123-1.845,4.123-4.123v-3.211    c0-13.535-10.974-24.508-24.509-24.508h-2.318v-6.333h-33.156c-0.745,0-1.452,0.359-1.891,0.961    c-0.438,0.602-0.564,1.384-0.336,2.092l1.066,3.322c-3.086,0.404-5.099,4.21-2.131,7.525c-5.002,4.992-8.103,11.891-8.103,19.501    C1123.081-573.744,1127.051-565.744,1133.972-560.479z M1131.356-606.31c0.379-1.007,1.343-1.686,2.414-1.719    c0.026-0.001,0.054-0.006,0.081-0.006h6.622h20.295h6.862h2.318c12.711,0,23.051,10.34,23.051,23.05v3.211    c0,1.469-1.195,2.665-2.665,2.665c-0.187,0-0.378-0.02-0.565-0.058c-1.197-0.239-2.1-1.427-2.1-2.763v-3.056    c0-9.771-7.949-17.721-17.721-17.721h-0.746h-3.404h-30.389h-2.96c-0.073-0.074-0.134-0.15-0.2-0.226    C1131.281-604.03,1130.95-605.23,1131.356-606.31z M1134.352-613.577c0.029-0.042,0.07-0.062,0.123-0.062h30.97v3.481h-30.061    l-1.054-3.284C1134.314-613.49,1134.321-613.536,1134.352-613.577z M1133.645-601.247h33.92    c4.972,4.488,8.199,10.885,8.439,17.932c0.072,2.102-0.12,4.18-0.552,6.193h-49.625c-0.362-1.722-0.56-3.495-0.56-5.302    C1125.268-589.885,1128.504-596.601,1133.645-601.247z M1175.275-576.394c-1.389,5.654-4.688,10.742-9.466,14.31    c-0.919,0.686-2.101,1.064-3.325,1.064h-23.677c-1.247,0-2.493-0.426-3.511-1.201c-4.729-3.596-7.956-8.578-9.31-14.173H1175.275z    " fill="#594A42"/><path d="M1148.195-590.813h3.607c0.402,0,0.729-0.326,0.729-0.729c0-0.403-0.326-0.729-0.729-0.729h-3.607    c-0.402,0-0.729,0.326-0.729,0.729C1147.467-591.14,1147.793-590.813,1148.195-590.813z" fill="#594A42"/><path d="M1144.588-585.885h10.822c0.403,0,0.729-0.326,0.729-0.729c0-0.403-0.325-0.729-0.729-0.729h-10.822    c-0.403,0-0.729,0.326-0.729,0.729C1143.859-586.211,1144.185-585.885,1144.588-585.885z" fill="#594A42"/><path d="M1151.803-582.416h-3.607c-0.402,0-0.729,0.327-0.729,0.729c0,0.403,0.326,0.729,0.729,0.729h3.607    c0.402,0,0.729-0.326,0.729-0.729C1152.531-582.088,1152.205-582.416,1151.803-582.416z" fill="#594A42"/><path d="M1148.195-571.102h3.607c0.402,0,0.729-0.326,0.729-0.729c0-0.402-0.326-0.729-0.729-0.729h-3.607    c-0.402,0-0.729,0.327-0.729,0.729C1147.467-571.428,1147.793-571.102,1148.195-571.102z" fill="#594A42"/><g><path d="M1140.788-637.049c-0.342,0-0.677-0.168-0.876-0.477c-0.313-0.483-0.176-1.129,0.309-1.441     c0.584-0.378,1.18-0.596,1.77-0.646c0.568-0.044,1.078,0.377,1.127,0.951c0.049,0.573-0.377,1.078-0.95,1.127     c-0.241,0.021-0.522,0.131-0.813,0.319C1141.178-637.103,1140.982-637.049,1140.788-637.049z" fill="#594A42"/><path d="M1142.816-624.164c-0.46,0-0.881-0.308-1.006-0.773c-0.227-0.844-0.742-1.664-1.168-2.284     c-0.325-0.475-0.204-1.124,0.271-1.45c0.475-0.326,1.123-0.205,1.449,0.271c0.519,0.757,1.154,1.773,1.461,2.924     c0.149,0.556-0.181,1.128-0.737,1.277C1142.996-624.175,1142.906-624.164,1142.816-624.164z M1139.188-630.49     c-0.417,0-0.81-0.251-0.971-0.662c-0.378-0.962-0.569-1.922-0.569-2.853c0-0.156,0.005-0.311,0.016-0.467     c0.041-0.575,0.546-1.009,1.113-0.968c0.574,0.04,1.008,0.538,0.967,1.112c-0.007,0.107-0.011,0.215-0.011,0.322     c0,0.669,0.144,1.372,0.425,2.09c0.211,0.536-0.053,1.141-0.589,1.352C1139.444-630.513,1139.314-630.49,1139.188-630.49z" fill="#594A42"/><path d="M1140.391-619.59c-0.451,0-0.867-0.295-1-0.75c-0.162-0.553,0.154-1.132,0.707-1.294     c0.346-0.102,0.652-0.251,0.912-0.446c0.461-0.345,1.114-0.251,1.459,0.21c0.346,0.461,0.252,1.115-0.21,1.459     c-0.459,0.343-0.989,0.605-1.575,0.777C1140.586-619.604,1140.487-619.59,1140.391-619.59z" fill="#594A42"/></g><path d="M1149.804-619.59c-0.451,0-0.866-0.294-1.001-0.749c-0.162-0.553,0.155-1.132,0.707-1.294    c1.084-0.318,1.732-1.077,1.825-2.138c0.134-1.521-0.913-2.963-1.927-4.358c-0.221-0.304-0.437-0.603-0.637-0.895    c-1.783-2.606-2.188-5.327-1.137-7.661c0.592-1.313,2.113-2.786,3.769-2.927c0.572-0.044,1.079,0.376,1.128,0.95    s-0.377,1.078-0.951,1.127c-0.76,0.065-1.705,0.954-2.043,1.706c-1,2.22,0.169,4.479,0.955,5.627    c0.189,0.277,0.395,0.56,0.604,0.847c1.182,1.626,2.52,3.469,2.316,5.766c-0.168,1.917-1.408,3.396-3.314,3.956    C1150-619.604,1149.9-619.59,1149.804-619.59z" fill="#594A42"/><g><path d="M1159.615-637.049c-0.342,0-0.678-0.168-0.877-0.477c-0.313-0.483-0.175-1.129,0.309-1.441     c0.584-0.378,1.18-0.596,1.77-0.646c0.57-0.044,1.078,0.377,1.127,0.951c0.049,0.573-0.376,1.078-0.949,1.127     c-0.242,0.021-0.523,0.131-0.814,0.319C1160.005-637.103,1159.809-637.049,1159.615-637.049z" fill="#594A42"/><path d="M1161.644-624.164c-0.461,0-0.882-0.308-1.007-0.773c-0.226-0.844-0.742-1.664-1.168-2.284     c-0.325-0.475-0.203-1.124,0.271-1.45c0.475-0.326,1.123-0.205,1.449,0.271c0.519,0.757,1.154,1.773,1.462,2.924     c0.148,0.556-0.182,1.128-0.737,1.277C1161.823-624.175,1161.732-624.164,1161.644-624.164z M1158.016-630.49     c-0.417,0-0.811-0.251-0.971-0.662c-0.379-0.962-0.57-1.922-0.57-2.853c0-0.156,0.006-0.311,0.016-0.467     c0.041-0.575,0.548-1.009,1.113-0.968c0.574,0.04,1.008,0.538,0.968,1.112c-0.007,0.107-0.011,0.215-0.011,0.322     c0,0.669,0.143,1.372,0.424,2.09c0.211,0.536-0.053,1.141-0.588,1.352C1158.271-630.513,1158.142-630.49,1158.016-630.49z" fill="#594A42"/><path d="M1159.217-619.59c-0.451,0-0.867-0.295-1-0.75c-0.162-0.553,0.154-1.132,0.707-1.294     c0.346-0.102,0.652-0.251,0.912-0.446c0.461-0.345,1.114-0.251,1.46,0.21c0.345,0.461,0.251,1.115-0.21,1.459     c-0.46,0.343-0.99,0.605-1.575,0.777C1159.412-619.604,1159.314-619.59,1159.217-619.59z" fill="#594A42"/></g></g><g><g><path d="M1142.52-529.974c-0.342,0-0.678-0.168-0.877-0.477c-0.313-0.483-0.174-1.129,0.31-1.441     c0.585-0.378,1.181-0.596,1.77-0.646c0.572-0.048,1.079,0.376,1.127,0.95c0.05,0.574-0.376,1.079-0.95,1.127     c-0.242,0.021-0.523,0.13-0.814,0.319C1142.91-530.027,1142.713-529.974,1142.52-529.974z" fill="#594A42"/><path d="M1144.549-517.088c-0.461,0-0.883-0.307-1.008-0.773c-0.225-0.844-0.742-1.664-1.167-2.284     c-0.325-0.475-0.204-1.124,0.271-1.449c0.475-0.326,1.123-0.205,1.449,0.271c0.52,0.757,1.154,1.773,1.463,2.924     c0.148,0.556-0.182,1.127-0.738,1.276C1144.729-517.1,1144.637-517.088,1144.549-517.088z M1140.92-523.414     c-0.416,0-0.81-0.251-0.971-0.662c-0.378-0.962-0.569-1.922-0.569-2.853c0-0.155,0.005-0.311,0.016-0.467     c0.04-0.574,0.548-1.009,1.112-0.968c0.574,0.04,1.008,0.538,0.969,1.113c-0.008,0.107-0.012,0.214-0.012,0.322     c0,0.669,0.143,1.372,0.425,2.09c0.211,0.536-0.054,1.141-0.589,1.352C1141.176-523.438,1141.047-523.414,1140.92-523.414z" fill="#594A42"/><path d="M1142.121-512.515c-0.451,0-0.866-0.295-1-0.749c-0.162-0.553,0.154-1.132,0.707-1.294     c0.346-0.101,0.653-0.251,0.913-0.445c0.46-0.346,1.114-0.251,1.46,0.21c0.344,0.461,0.25,1.114-0.211,1.459     c-0.459,0.343-0.988,0.604-1.574,0.777C1142.317-512.529,1142.219-512.515,1142.121-512.515z" fill="#594A42"/></g><path d="M1151.535-512.515c-0.451,0-0.867-0.294-1-0.749c-0.162-0.552,0.153-1.132,0.706-1.294    c1.083-0.318,1.731-1.077,1.825-2.138c0.134-1.521-0.914-2.963-1.926-4.357c-0.222-0.304-0.438-0.603-0.639-0.896    c-1.783-2.606-2.186-5.327-1.136-7.661c0.592-1.313,2.114-2.786,3.769-2.927c0.57-0.048,1.078,0.376,1.127,0.95    c0.049,0.573-0.376,1.078-0.949,1.127c-0.76,0.065-1.706,0.954-2.045,1.706c-1,2.22,0.17,4.479,0.955,5.627    c0.19,0.277,0.396,0.56,0.604,0.848c1.181,1.626,2.519,3.468,2.316,5.766c-0.169,1.917-1.407,3.396-3.314,3.956    C1151.73-512.529,1151.632-512.515,1151.535-512.515z" fill="#594A42"/><g><path d="M1161.346-529.974c-0.342,0-0.678-0.168-0.877-0.477c-0.313-0.483-0.174-1.129,0.311-1.441     c0.584-0.378,1.18-0.596,1.77-0.646c0.572-0.048,1.078,0.376,1.127,0.95s-0.377,1.079-0.951,1.127     c-0.242,0.021-0.523,0.13-0.814,0.319C1161.736-530.027,1161.539-529.974,1161.346-529.974z" fill="#594A42"/><path d="M1163.375-517.088c-0.461,0-0.883-0.307-1.007-0.773c-0.226-0.844-0.743-1.664-1.167-2.284     c-0.326-0.475-0.205-1.124,0.27-1.449c0.475-0.326,1.124-0.205,1.449,0.271c0.52,0.757,1.154,1.773,1.463,2.924     c0.148,0.556-0.182,1.127-0.738,1.276C1163.555-517.1,1163.464-517.088,1163.375-517.088z M1159.746-523.414     c-0.416,0-0.81-0.251-0.971-0.662c-0.378-0.962-0.569-1.922-0.569-2.853c0-0.155,0.005-0.311,0.017-0.467     c0.039-0.574,0.541-1.009,1.111-0.968c0.575,0.04,1.008,0.538,0.969,1.113c-0.008,0.107-0.012,0.214-0.012,0.322     c0,0.669,0.143,1.372,0.426,2.09c0.21,0.536-0.054,1.141-0.59,1.352C1160.002-523.438,1159.873-523.414,1159.746-523.414z" fill="#594A42"/><path d="M1160.947-512.515c-0.45,0-0.866-0.295-1-0.749c-0.161-0.553,0.154-1.132,0.707-1.294     c0.347-0.101,0.654-0.251,0.914-0.445c0.46-0.346,1.113-0.251,1.459,0.21c0.345,0.461,0.25,1.114-0.211,1.459     c-0.459,0.343-0.988,0.604-1.574,0.777C1161.144-512.529,1161.045-512.515,1160.947-512.515z" fill="#594A42"/></g></g><g><g><path d="M1146.556-363.047c-1.092-0.497-2.034-0.926-2.837-2.442c-0.83-1.566-0.804-2.526-0.773-3.636     c0.033-1.166,0.07-2.487-0.955-4.423c-0.205-0.387-0.684-0.533-1.07-0.328c-0.386,0.203-0.533,0.682-0.328,1.068     c0.83,1.569,0.803,2.527,0.771,3.638c-0.033,1.165-0.069,2.486,0.956,4.422c1.055,1.991,2.397,2.604,3.581,3.142     c1.092,0.496,2.035,0.926,2.838,2.44c0.83,1.569,0.805,2.529,0.773,3.641c-0.032,1.167-0.068,2.486,0.957,4.425     c0.205,0.387,0.684,0.533,1.07,0.328c0.386-0.205,0.533-0.683,0.329-1.069c-0.831-1.569-0.805-2.528-0.774-3.641     c0.033-1.165,0.068-2.486-0.957-4.424C1149.082-361.897,1147.74-362.51,1146.556-363.047z" fill="#BC7D48"/><g><path d="M1138.629-376.678c-6.515,3.449-8.406,12.695-4.215,20.609c4.191,7.915,12.9,11.548,19.416,8.097      c6.516-3.449,8.405-12.694,4.215-20.608C1153.854-376.496,1145.145-380.128,1138.629-376.678z M1152.872-349.78      c-5.489,2.907-12.935-0.355-16.598-7.273c-3.663-6.917-2.177-14.908,3.313-17.814c5.489-2.907,12.934,0.355,16.598,7.271      C1159.848-360.68,1158.361-352.687,1152.872-349.78z" fill="#594A42"/><path d="M1143.719-365.489c-0.83-1.566-0.804-2.526-0.773-3.636c0.033-1.166,0.07-2.487-0.955-4.423      c-0.205-0.387-0.684-0.533-1.07-0.328c-0.386,0.203-0.533,0.682-0.328,1.068c0.83,1.569,0.803,2.527,0.771,3.638      c-0.033,1.165-0.069,2.486,0.956,4.422c1.055,1.991,2.397,2.604,3.581,3.142c1.092,0.496,2.035,0.926,2.838,2.44      c0.83,1.569,0.805,2.529,0.773,3.641c-0.032,1.167-0.068,2.486,0.957,4.425c0.205,0.387,0.684,0.533,1.07,0.328      c0.386-0.205,0.533-0.683,0.329-1.069c-0.831-1.569-0.805-2.528-0.774-3.641c0.033-1.165,0.068-2.486-0.957-4.424      c-1.055-1.991-2.396-2.604-3.581-3.141C1145.464-363.544,1144.521-363.973,1143.719-365.489z" fill="#594A42"/></g></g><g><path d="M1177.658-373.083c-0.387-1.136-0.721-2.115-0.166-3.739c0.572-1.678,1.289-2.315,2.119-3.055     c0.871-0.773,1.858-1.652,2.566-3.727c0.141-0.413-0.08-0.863-0.493-1.004c-0.414-0.141-0.864,0.078-1.005,0.493     c-0.573,1.68-1.29,2.316-2.12,3.056c-0.872,0.773-1.858,1.651-2.565,3.725c-0.729,2.134-0.254,3.529,0.165,4.761     c0.387,1.137,0.72,2.118,0.166,3.74c-0.573,1.681-1.29,2.318-2.121,3.058c-0.872,0.774-1.858,1.654-2.566,3.729     c-0.142,0.414,0.079,0.863,0.493,1.005c0.413,0.142,0.863-0.079,1.004-0.493c0.574-1.681,1.291-2.318,2.122-3.059     c0.871-0.774,1.858-1.653,2.567-3.729C1178.551-370.455,1178.077-371.851,1177.658-373.083z" fill="#BC7D48"/><g><path d="M1182.117-388.084c-6.928-2.363-14.898,2.556-17.771,10.972c-2.871,8.414,0.426,17.184,7.354,19.547      c6.926,2.365,14.896-2.558,17.77-10.971C1192.341-376.951,1189.043-385.719,1182.117-388.084z M1172.322-359.392      c-5.879-2.006-8.604-9.664-6.076-17.072c2.529-7.407,9.369-11.801,15.247-9.793c5.879,2.006,8.604,9.664,6.075,17.072      C1185.039-361.777,1178.199-357.384,1172.322-359.392z" fill="#594A42"/><path d="M1177.492-376.822c0.572-1.678,1.289-2.315,2.119-3.055c0.871-0.773,1.858-1.652,2.566-3.727      c0.141-0.413-0.08-0.863-0.493-1.004c-0.414-0.141-0.864,0.078-1.005,0.493c-0.573,1.68-1.29,2.316-2.12,3.056      c-0.872,0.773-1.858,1.651-2.565,3.725c-0.729,2.134-0.254,3.529,0.165,4.761c0.387,1.137,0.72,2.118,0.166,3.74      c-0.573,1.681-1.29,2.318-2.121,3.058c-0.872,0.774-1.858,1.654-2.566,3.729c-0.142,0.414,0.079,0.863,0.493,1.005      c0.413,0.142,0.863-0.079,1.004-0.493c0.574-1.681,1.291-2.318,2.122-3.059c0.871-0.774,1.858-1.653,2.567-3.729      c0.727-2.133,0.253-3.528-0.166-4.761C1177.271-374.219,1176.938-375.198,1177.492-376.822z" fill="#594A42"/></g></g><g><path d="M1154.822-396.068c-0.299-0.877-0.557-1.636-0.128-2.89c0.442-1.297,0.997-1.789,1.638-2.36     c0.674-0.599,1.437-1.278,1.984-2.881c0.108-0.319-0.063-0.667-0.382-0.775s-0.667,0.061-0.776,0.381     c-0.443,1.298-0.997,1.791-1.639,2.361c-0.673,0.599-1.436,1.277-1.983,2.879c-0.562,1.648-0.196,2.728,0.128,3.68     c0.299,0.878,0.557,1.636,0.129,2.89c-0.443,1.299-0.998,1.792-1.64,2.363c-0.673,0.599-1.437,1.278-1.983,2.883     c-0.109,0.318,0.062,0.666,0.381,0.775c0.32,0.109,0.668-0.061,0.777-0.382c0.443-1.298,0.996-1.79,1.639-2.363     c0.674-0.599,1.436-1.277,1.984-2.881C1155.514-394.037,1155.146-395.116,1154.822-396.068z" fill="#BC7D48"/><g><path d="M1158.381-407.987c-5.502-1.878-11.833,2.031-14.113,8.713c-2.281,6.683,0.338,13.647,5.838,15.524      c5.502,1.878,11.832-2.031,14.113-8.713C1166.5-399.146,1163.881-406.109,1158.381-407.987z M1150.699-385.486      c-4.544-1.551-6.649-7.47-4.695-13.195c1.954-5.725,7.24-9.119,11.783-7.568s6.648,7.469,4.695,13.193      C1160.527-387.331,1155.242-383.935,1150.699-385.486z" fill="#594A42"/><path d="M1154.694-398.958c0.442-1.297,0.997-1.789,1.638-2.36c0.674-0.599,1.437-1.278,1.984-2.881      c0.108-0.319-0.063-0.667-0.382-0.775s-0.667,0.061-0.776,0.381c-0.443,1.298-0.997,1.791-1.639,2.361      c-0.673,0.599-1.436,1.277-1.983,2.879c-0.562,1.648-0.196,2.728,0.128,3.68c0.299,0.878,0.557,1.636,0.129,2.89      c-0.443,1.299-0.998,1.792-1.64,2.363c-0.673,0.599-1.437,1.278-1.983,2.883c-0.109,0.318,0.062,0.666,0.381,0.775      c0.32,0.109,0.668-0.061,0.777-0.382c0.443-1.298,0.996-1.79,1.639-2.363c0.674-0.599,1.436-1.277,1.984-2.881      c0.563-1.648,0.195-2.728-0.129-3.68C1154.523-396.945,1154.266-397.704,1154.694-398.958z" fill="#594A42"/></g></g></g><g><path d="M1487.357-579.361h0.193c0.002-0.008,0.004-0.017,0.004-0.025L1487.357-579.361z" fill="#BC7D48"/><path d="M1450.688-613.592h-0.461l0.465,0.058C1450.689-613.554,1450.689-613.573,1450.688-613.592z" fill="#BC7D48"/><path d="M1491.664-613.592h-0.393c-0.002,0.017-0.004,0.034-0.006,0.051L1491.664-613.592z" fill="#BC7D48"/><path d="M1469.994-584.703c-7.022,0-12.736-5.713-12.736-12.735s5.714-12.736,12.736-12.736    c7.021,0,12.734,5.713,12.734,12.736S1477.016-584.703,1469.994-584.703z M1469.994-608.674c-6.195,0-11.236,5.041-11.236,11.236    s5.041,11.235,11.236,11.235c6.194,0,11.234-5.04,11.234-11.235S1476.188-608.674,1469.994-608.674z" fill="#594637"/><polygon fill="#594637" points="1485.979,-579.183 1487.357,-579.361 1486,-579.361   "/><path d="M1493.021-613.592l0.023-0.178l-0.717,0.092c-0.004,0.029-0.006,0.057-0.008,0.085H1493.021z" fill="#594637"/><path d="M1493.021-613.592l0.023-0.178l-0.717,0.092c-0.004,0.029-0.006,0.057-0.008,0.085H1493.021z" opacity="0.2"/><path d="M1492.32-613.592c0.002-0.029,0.004-0.057,0.008-0.085l-0.664,0.085H1492.32z" fill="#594637"/><path d="M1492.32-613.592c0.002-0.029,0.004-0.057,0.008-0.085l-0.664,0.085H1492.32z" opacity="0.2"/><path d="M1449.631-613.666l-0.785-0.097l0.021,0.17h0.771C1449.635-613.617,1449.635-613.641,1449.631-613.666z" fill="#594637"/><path d="M1449.631-613.666l-0.785-0.097l0.021,0.17h0.771    C1449.635-613.617,1449.635-613.641,1449.631-613.666z" fill="#FFFFFF" opacity="0.3"/><polygon fill="#594637" points="1453.154,-579.531 1453.213,-579.539 1452.033,-588.434   "/><polygon fill="#FFFFFF" opacity="0.3" points="1453.154,-579.531 1453.213,-579.539 1452.033,-588.434   "/><path d="M1450.227-613.592l-0.596-0.074c0.004,0.025,0.004,0.049,0.008,0.074H1450.227z" fill="#594637"/><path d="M1450.227-613.592l-0.596-0.074c0.004,0.025,0.004,0.049,0.008,0.074H1450.227z" fill="#FFFFFF" opacity="0.3"/><polygon fill="#594637" points="1455.244,-568.773 1455.246,-568.773 1455.244,-568.774   "/><path d="M1493.545-615.678c0.203-2.476,0.354-4.417,0.441-5.59h1.334v-4.31v-1.532v-4.313h-3.836l-1.305-7.629    h-38.57l-1.148,7.629h-3.992v4.313v1.532v4.31h1.502c0.088,1.173,0.238,3.114,0.443,5.59h-2.092l5.086,38.402h1.199    c0.809,5.217,1.686,9.618,2.604,12.274l0.242,0.703h31.051l0.242-0.703c0.918-2.656,1.795-7.057,2.605-12.274h1.371l4.734-38.402    H1493.545z M1453.404-636.966h35.018l0.896,5.238h-36.701L1453.404-636.966z M1485.004-566.384h-28.051    c-0.215-0.7-0.428-1.5-0.639-2.389h2.389h18.383v-1.39h-18.639H1456c-0.439-2.054-0.867-4.469-1.279-7.112h2.617h27.43h2.469    C1486.533-572.758,1485.781-568.911,1485.004-566.384z M1488.879-579.361h-0.273h-1.055h-0.193H1486h-31.594h-1.055h-0.115    l-1.203-9.073l-3.332-25.159h0.166h1.359h0.461h40.584h0.393h1.357h0.076L1488.879-579.361z M1450.063-621.268h39.143h2.689    c-0.092,1.197-0.244,3.132-0.449,5.59h-2.738h-38.195C1450.307-618.135,1450.154-620.071,1450.063-621.268z M1493.234-623.583    v0.231h-44.682v-0.231v-1.44h44.682V-623.583z M1493.234-627.663h-44.682v-1.675h44.682V-627.663z" fill="#594637"/><path d="M1468.63-590.35c1.371-2.14,0.769-4.892,0.233-6.344c-0.534-1.452-0.572-4.013-0.305-5.121    c0.267-1.109,0.305-2.178,0.305-2.178s-5.697,0.712-5.197,6.821C1464.239-590.159,1468.63-590.35,1468.63-590.35z" fill="#594637"/><path d="M1471.799-592.528c-0.267,1.108-0.305,2.179-0.305,2.179s5.697-0.712,5.197-6.822    c-0.573-7.013-4.964-6.822-4.964-6.822c-1.37,2.14-0.769,4.892-0.233,6.344C1472.029-596.197,1472.067-593.637,1471.799-592.528z" fill="#594637"/></g><g><g><path d="M1170.368-247.099c-0.146,0.176-0.299,0.343-0.454,0.51     C1170.069-246.756,1170.223-246.923,1170.368-247.099z" fill="#DAD4CF"/><path d="M1168.389-245.229c-1.187,0.874-2.551,1.522-4.032,1.88     C1165.839-243.707,1167.202-244.352,1168.389-245.229z" fill="#DAD4CF"/><path d="M1150.774-251.526c-0.028-0.114-0.054-0.229-0.079-0.345     C1150.721-251.756,1150.746-251.641,1150.774-251.526z" fill="#DAD4CF"/><path d="M1171.214-248.279c-0.211,0.335-0.438,0.66-0.683,0.97     C1170.775-247.619,1171.003-247.942,1171.214-248.279z" fill="#DAD4CF"/><path d="M1172.066-249.925c-0.058,0.139-0.114,0.277-0.177,0.413     C1171.952-249.647,1172.009-249.786,1172.066-249.925z" fill="#DAD4CF"/><path d="M1150.568-252.563c-0.016-0.105-0.034-0.212-0.047-0.317     C1150.534-252.774,1150.553-252.668,1150.568-252.563z" fill="#DAD4CF"/><path d="M1171.647-249.034c-0.072,0.139-0.141,0.281-0.22,0.415     C1171.507-248.753,1171.575-248.895,1171.647-249.034z" fill="#DAD4CF"/><path d="M1169.065-245.771c-0.191,0.166-0.388,0.326-0.59,0.479     C1168.678-245.444,1168.874-245.604,1169.065-245.771z" fill="#DAD4CF"/><path d="M1153.688-246.348c-0.324-0.326-0.623-0.676-0.905-1.04     C1153.064-247.022,1153.364-246.675,1153.688-246.348z" fill="#DAD4CF"/><path d="M1154.236-245.834c-0.182-0.159-0.359-0.323-0.531-0.494     C1153.876-246.157,1154.055-245.994,1154.236-245.834z" fill="#DAD4CF"/><path d="M1151.569-249.343c-0.057-0.117-0.118-0.233-0.171-0.354     C1151.451-249.576,1151.513-249.46,1151.569-249.343z" fill="#DAD4CF"/><path d="M1154.938-245.262c-0.2-0.149-0.395-0.308-0.585-0.47     C1154.543-245.568,1154.738-245.412,1154.938-245.262z" fill="#DAD4CF"/><path d="M1152.063-248.432c-0.083-0.139-0.165-0.276-0.243-0.419     C1151.898-248.708,1151.98-248.57,1152.063-248.432z" fill="#DAD4CF"/><path d="M1152.602-247.619c-0.105-0.145-0.203-0.292-0.303-0.441     C1152.398-247.911,1152.496-247.764,1152.602-247.619z" fill="#DAD4CF"/><path d="M1169.735-246.399c-0.165,0.169-0.336,0.331-0.512,0.489     C1169.399-246.069,1169.57-246.23,1169.735-246.399z" fill="#DAD4CF"/><path d="M1151.058-250.562c-0.032-0.095-0.06-0.194-0.091-0.29     C1150.998-250.756,1151.025-250.656,1151.058-250.562z" fill="#DAD4CF"/><path d="M1172.851-252.872c-0.014,0.115-0.036,0.227-0.054,0.341     C1172.814-252.646,1172.837-252.757,1172.851-252.872z" fill="#DAD4CF"/><path d="M1172.411-250.867c-0.043,0.138-0.088,0.274-0.137,0.41     C1172.323-250.593,1172.368-250.729,1172.411-250.867z" fill="#DAD4CF"/><path d="M1172.675-251.851c-0.029,0.133-0.063,0.263-0.098,0.395     C1172.611-251.588,1172.646-251.718,1172.675-251.851z" fill="#DAD4CF"/><path d="M1172.797-252.531c-0.035,0.229-0.073,0.456-0.122,0.681     C1172.724-252.075,1172.762-252.302,1172.797-252.531z" fill="#FFFFFF"/><path d="M1172.935-253.923c-0.011,0.355-0.041,0.706-0.084,1.051     C1172.894-253.217,1172.924-253.567,1172.935-253.923z" fill="#FFFFFF"/><path d="M1168.476-245.291c-0.029,0.02-0.059,0.04-0.087,0.063     C1168.417-245.251,1168.446-245.271,1168.476-245.291z" fill="#FFFFFF"/><path d="M1169.224-245.91c-0.053,0.046-0.105,0.094-0.158,0.14     C1169.118-245.816,1169.171-245.864,1169.224-245.91z" fill="#FFFFFF"/><polygon fill="#FFFFFF" points="1164.351,-243.348 1164.356,-243.349 1164.35,-243.348    "/><path d="M1171.428-248.619c-0.067,0.117-0.144,0.228-0.214,0.34     C1171.284-248.392,1171.36-248.502,1171.428-248.619z" fill="#FFFFFF"/><path d="M1171.89-249.512c-0.075,0.163-0.159,0.32-0.242,0.478C1171.73-249.191,1171.813-249.349,1171.89-249.512     z" fill="#FFFFFF"/><path d="M1172.274-250.457c-0.064,0.18-0.135,0.357-0.208,0.532C1172.14-250.1,1172.21-250.277,1172.274-250.457z     " fill="#FFFFFF"/><path d="M1169.914-246.589c-0.06,0.063-0.118,0.127-0.179,0.189     C1169.796-246.462,1169.854-246.526,1169.914-246.589z" fill="#FFFFFF"/><path d="M1172.577-251.456c-0.05,0.198-0.105,0.396-0.166,0.589     C1172.473-251.061,1172.527-251.258,1172.577-251.456z" fill="#FFFFFF"/><path d="M1170.531-247.31c-0.056,0.07-0.106,0.142-0.163,0.211     C1170.425-247.168,1170.476-247.239,1170.531-247.31z" fill="#FFFFFF"/><path d="M1152.782-247.388c-0.06-0.077-0.122-0.151-0.181-0.231     C1152.66-247.539,1152.723-247.465,1152.782-247.388z" fill="#E5DFDA"/><path d="M1150.695-251.871c-0.049-0.229-0.091-0.459-0.127-0.691     C1150.604-252.33,1150.646-252.1,1150.695-251.871z" fill="#E5DFDA"/><path d="M1154.964-245.242c-0.009-0.007-0.017-0.013-0.026-0.02     C1154.947-245.255,1154.955-245.249,1154.964-245.242z" fill="#E5DFDA"/><path d="M1150.967-250.852c-0.07-0.223-0.135-0.447-0.192-0.675     C1150.832-251.299,1150.896-251.074,1150.967-250.852z" fill="#E5DFDA"/><path d="M1150.521-252.88c-0.042-0.338-0.074-0.681-0.086-1.026     C1150.447-253.559,1150.479-253.218,1150.521-252.88z" fill="#E5DFDA"/><path d="M1151.398-249.696c-0.125-0.282-0.238-0.57-0.341-0.865     C1151.16-250.267,1151.273-249.979,1151.398-249.696z" fill="#E5DFDA"/><path d="M1151.82-248.851c-0.088-0.16-0.17-0.326-0.251-0.492C1151.65-249.177,1151.732-249.011,1151.82-248.851z     " fill="#E5DFDA"/><path d="M1153.705-246.328c-0.006-0.007-0.012-0.014-0.018-0.02     C1153.693-246.342,1153.699-246.335,1153.705-246.328z" fill="#E5DFDA"/><path d="M1154.353-245.731c-0.038-0.034-0.077-0.067-0.116-0.103     C1154.275-245.799,1154.314-245.766,1154.353-245.731z" fill="#E5DFDA"/><path d="M1152.299-248.061c-0.08-0.122-0.16-0.246-0.235-0.371     C1152.14-248.307,1152.219-248.183,1152.299-248.061z" fill="#E5DFDA"/></g><g><path d="M1160.771-297.021c-0.129-0.022-0.26-0.048-0.391-0.065l-0.026,0.355     C1160.492-296.83,1160.633-296.926,1160.771-297.021z" fill="#FFFFFF"/></g><path d="M1185.972-281.104c-1.942-3.191-5.266-4.648-9.112-3.993c-0.047,0.008-0.084,0.036-0.129,0.05l0.28-5.164    c0.033-0.66-0.207-1.311-0.662-1.789c-0.345-0.361-0.796-0.604-1.28-0.701c0.354-0.67,0.584-1.454,0.632-2.294    c0.127-2.209-0.946-4.159-2.871-5.215c-2.056-1.127-4.403-1.29-7.019-0.507c0.004-0.068,0.016-0.136,0.017-0.204    c0.013-1.071-0.545-1.967-1.493-2.396c-0.524-0.239-1.142-0.006-1.38,0.519c-0.237,0.525-0.005,1.143,0.52,1.38    c0.133,0.061,0.272,0.151,0.27,0.473c-0.006,0.487-0.33,0.921-0.471,0.98c-0.678,0.286-1.969-0.048-2.825-0.271l-0.158-0.041    c-1.291-0.332-2.867-0.661-4.735-0.587c-6.359,0.256-7.694,3.292-7.694,5.794c0,0.852,0.29,1.668,0.813,2.366h-0.034    c-0.659,0.001-1.296,0.276-1.749,0.756s-0.691,1.131-0.656,1.793l2.107,36.345c0.191,5.476,3.603,10.043,8.388,11.94    c0.028,0.05,0.042,0.106,0.08,0.153c1.058,1.296,1.618,2.867,1.62,4.538c0.004,2.064-0.764,2.355-2.814,3.135    c-0.476,0.181-0.986,0.376-1.527,0.609c-2.314,1.007-3.807,3.211-3.803,5.613v0.119c0.002,0.579,0.473,1.049,1.051,1.047    l20.812-0.036c0.58-0.002,1.049-0.473,1.047-1.051v-0.12c-0.004-2.402-1.504-4.601-3.822-5.6    c-0.541-0.232-1.053-0.425-1.529-0.604c-2.054-0.771-2.822-1.061-2.826-3.124c-0.003-1.673,0.553-3.245,1.604-4.545    c0.039-0.048,0.053-0.105,0.082-0.157c4.77-1.916,8.158-6.488,8.33-11.941l0.529-9.726c0.164,0.103,0.348,0.175,0.55,0.174    c0.05,0,0.099-0.004,0.148-0.011c3.018-0.432,7.057-2.188,9.278-5.139C1188.087-271.921,1188.274-277.325,1185.972-281.104z     M1150.6-293.651c-0.428-0.406-0.654-0.897-0.654-1.418c0-1.495,0.59-3.506,5.691-3.711c1.291-0.053,2.488,0.101,4.133,0.523    l0.154,0.04c0.184,0.048,0.379,0.097,0.58,0.146c-0.236,0.16-0.473,0.32-0.713,0.492c-0.467,0.335-0.574,0.986-0.238,1.455    c0.336,0.467,0.986,0.575,1.455,0.238c4.419-3.172,8.059-4.013,10.818-2.497c1.732,0.95,1.83,2.602,1.792,3.268    c-0.069,1.204-0.664,2.081-1.188,2.294c-0.044,0.018-0.073,0.052-0.112,0.074l-18.969,0.035    C1152.209-292.74,1151.221-293.063,1150.6-293.651z M1167.104-232.103c0.446,0.168,0.929,0.349,1.438,0.568    c1.257,0.542,2.136,1.551,2.438,2.746l-18.485,0.033c0.298-1.196,1.173-2.209,2.428-2.756c0.508-0.22,0.99-0.403,1.436-0.573    c2.146-0.814,4.174-1.586,4.168-5.099c-0.002-1.355-0.308-2.69-0.875-3.909c0.674,0.102,1.357,0.169,2.06,0.168    c0.706-0.001,1.394-0.072,2.069-0.177c-0.563,1.221-0.863,2.558-0.861,3.914C1162.924-233.674,1164.954-232.909,1167.104-232.103z     M1172.936-253.923c-0.192,6.103-5.125,10.891-11.229,10.901c-6.106,0.011-11.056-4.761-11.271-10.885l-2.107-36.366    c-0.007-0.118,0.051-0.198,0.085-0.234c0.034-0.038,0.111-0.1,0.228-0.1l4.73-0.008c0.045,0,0.086,0.01,0.132,0.01    c0.13,0,0.263-0.005,0.396-0.011l20.702-0.037c0.117,0,0.193,0.062,0.229,0.098c0.035,0.037,0.092,0.117,0.087,0.232    L1172.936-253.923z M1176.402-279.039c0.121,0.065,0.249,0.115,0.39,0.13c0.018,0.002,0.033,0.007,0.05,0.008    c0.068,0.004,0.139,0.001,0.209-0.01c1.197-0.174,2.024,0.351,2.51,0.814c0.897,0.858,1.348,2.226,1.206,3.655    c-0.252,2.568-1.899,4.336-4.41,4.797c-0.018,0.004-0.033,0.009-0.051,0.011c-0.072,0.014-0.138,0.035-0.211,0.047    c-0.077,0.011-0.141,0.048-0.21,0.075L1176.402-279.039z M1183.86-269.795c-1.551,2.061-4.693,3.8-7.699,4.284    c-0.066,0.011-0.133,0.03-0.199,0.039c-0.11,0.016-0.208,0.061-0.304,0.107l0.123-2.258c0.143,0.071,0.295,0.122,0.462,0.121    c0.004,0,0.008,0,0.012,0c0.045-0.001,0.09-0.004,0.137-0.01c3.629-0.519,6.105-3.095,6.463-6.727    c0.203-2.065-0.486-4.075-1.843-5.374c-1.128-1.081-2.587-1.568-4.12-1.388c-0.047,0.006-0.092,0.006-0.138,0.013    c-0.092,0.013-0.169,0.054-0.25,0.088l0.12-2.207c0.113,0.049,0.234,0.081,0.361,0.087c0.074,0.004,0.15,0.001,0.227-0.012    c2.997-0.511,5.475,0.561,6.969,3.015C1186.061-276.929,1185.923-272.534,1183.86-269.795z" fill="#594A42"/></g><path d="M1265.377-416.881h-3.129v-3.205h-23.121v3.205h-3.142c-3.03,0-5.497,2.874-5.497,6.405v8.394h1.159   c0.317,3.27,0.899,6.991,1.968,9.553c-0.631,6.071-3.54,36.238-0.758,51.617l0.155,0.857h35.419l0.154-0.857   c2.787-15.396-0.12-45.505-0.758-51.617c1.063-2.548,1.643-6.275,1.963-9.553h1.084v-8.394   C1270.875-414.007,1268.408-416.881,1265.377-416.881z M1241.213-418.001h18.95v1.12h-18.95V-418.001z M1232.574-410.476   c0-2.341,1.563-4.319,3.411-4.319h3.142h2.086h18.95h2.085h3.129c1.85,0,3.412,1.979,3.412,4.319v0.421v5.888h-0.91h-34.313h-0.992   v-5.888V-410.476z M1265.723-392.627c0.001,0.011,0.009,0.09,0.023,0.233c0.603,5.761,3.43,34.82,0.936,50.254h-31.918   c-2.387-14.766,0.105-42.077,0.846-49.39h11.656v-2h-11.796c-0.905-2.273-1.429-5.572-1.725-8.553h33.952   c-0.34,3.346-0.926,6.808-1.887,8.967l-0.104,0.233L1265.723-392.627z" fill="#594637"/><path d="M1367.832-371.002c1.371-2.14,0.769-4.892,0.233-6.344c-0.534-1.452-0.573-4.013-0.306-5.121   c0.268-1.109,0.306-2.178,0.306-2.178s-5.697,0.712-5.197,6.821C1363.441-370.812,1367.832-371.002,1367.832-371.002z" fill="#594637"/><path d="M1371.167-373.181c-0.267,1.108-0.305,2.179-0.305,2.179s5.696-0.712,5.196-6.822   c-0.572-7.013-4.963-6.822-4.963-6.822c-1.371,2.14-0.77,4.892-0.233,6.344C1371.396-376.849,1371.436-374.289,1371.167-373.181z" fill="#594637"/><path d="M1154.34-248.681c-1.52-2.28-1.398-4.661-1.393-4.761l-1.162-27.86l1.5-0.063l1.16,27.935   c-0.001,0.092-0.088,2.069,1.143,3.916L1154.34-248.681z" fill="#594637"/><rect fill="#594637" height="1.5" transform="matrix(0.0416 0.9991 -0.9991 0.0416 819.5308 -1424.7035)" width="3.641" x="1150.555" y="-285.931"/></g><g><path d="M68.383,43.406v-0.516v-1.163v-8.956v-0.014h-0.014L53.631,18.975H33.847v1.536v5.884H11.195v0.942v0.581v43.98H9.126   v0.961h3.36v-0.48h2.04v0.48h3.36v-0.48h2.04v0.48h3.36v-0.48h2.04v0.48h3.36v-0.48h2.04v0.48h3.36v-0.48h1.335h0.705v0.48h3.36   v-0.48h2.04v0.48h3.36v-0.48h2.04v0.48h3.36v-0.48h2.04v0.48h3.359v-0.48h2.041v0.48h3.359v-0.48h2.04v0.48h3.36v-0.48h1.896   V49.008h-2.579v20.794H37.505V21.554h15.519l12.78,11.889v8.261v1.16v0.517v0.516H40.814v4.093h26.032h1.536h4.762v-4.066h-4.762   V43.406z M13.774,30.003h20.073v39.798H13.774V30.003z"/><rect height="8.621" width="5.395" x="24.179" y="33.816"/><rect height="1.873" width="5.396" x="40.814" y="60.491"/><rect height="17.103" width="9.227" x="52.431" y="50.582"/><rect height="8.621" width="5.396" x="17.042" y="33.816"/><rect height="1.871" width="12.519" x="17.042" y="43.729"/><rect height="8.62" width="5.395" x="24.179" y="50.582"/><rect height="8.62" width="5.396" x="17.042" y="50.582"/><rect height="1.873" width="12.519" x="17.042" y="60.491"/><rect height="8.623" width="5.395" x="47.939" y="27.918"/><rect height="8.62" width="5.395" x="40.803" y="50.582"/><rect height="1.871" width="12.52" x="40.814" y="37.83"/><rect height="8.623" width="5.396" x="40.814" y="27.918"/><rect height="0.961" width="3.36" x="19.926" y="14.238"/><rect height="0.961" width="3.36" x="25.326" y="14.238"/><rect height="0.961" width="3.36" x="73.926" y="14.238"/><rect height="0.961" width="3.36" x="14.526" y="14.238"/><rect height="0.961" width="3.36" x="41.526" y="14.238"/><rect height="0.961" width="3.36" x="46.926" y="14.238"/><rect height="0.961" width="3.36" x="36.126" y="14.238"/><rect height="0.961" width="3.359" x="52.326" y="14.238"/><rect height="0.961" width="3.359" x="84.727" y="14.238"/><rect height="0.961" width="3.36" x="3.726" y="14.238"/><rect height="0.961" width="3.359" x="57.727" y="14.238"/><rect height="0.961" width="3.361" x="68.525" y="14.238"/><rect height="0.961" width="3.36" x="63.126" y="14.238"/><rect height="0.961" width="3.359" x="84.727" y="71.898"/><rect height="0.961" width="3.36" x="73.926" y="71.898"/><rect height="0.961" width="3.36" x="3.726" y="71.898"/><polygon points="79.326,72.401 78.723,72.401 78.723,75.763 79.683,75.763 79.683,72.859 82.686,72.859 82.686,71.898    79.326,71.898  "/><rect height="0.961" width="3.361" x="68.525" y="71.898"/><rect height="3.361" width="0.96" x="78.723" y="61.602"/><rect height="3.36" width="0.96" x="78.723" y="67.002"/><polygon points="79.683,15.199 82.686,15.199 82.686,14.238 79.683,14.238 79.683,13.002 78.723,13.002 78.723,16.362    79.683,16.362  "/><rect height="3.36" width="0.96" x="78.723" y="23.802"/><rect height="3.361" width="0.96" x="78.723" y="29.201"/><rect height="3.361" width="0.96" x="78.723" y="34.602"/><rect height="3.36" width="0.96" x="78.723" y="50.802"/><rect height="3.361" width="0.96" x="78.723" y="7.602"/><rect height="3.311" width="0.96" x="78.723" y="77.802"/><rect height="3.361" width="0.96" x="78.723" y="18.401"/><rect height="3.361" width="0.96" x="78.723" y="45.401"/><rect height="3.361" width="0.96" x="78.723" y="56.201"/><path d="M32.042,17.625c0,0.265,0.215,0.48,0.48,0.48s0.48-0.216,0.48-0.48v-2.426h1.083v-0.961h-1.083v-5.67   c0-0.265-0.215-0.48-0.48-0.48s-0.48,0.216-0.48,0.48v5.67h-1.316v0.961h1.316V17.625z"/><path d="M11.198,17.625c0,0.265,0.215,0.48,0.48,0.48s0.48-0.216,0.48-0.48v-2.426h0.328v-0.961h-0.328v-5.67   c0-0.265-0.215-0.48-0.48-0.48s-0.48,0.216-0.48,0.48v5.67H9.126v0.961h2.072V17.625z"/><polygon points="75.236,43.248 75.236,44.209 85.254,44.209 85.254,43.248 79.683,43.248 79.683,40.002 78.723,40.002    78.723,43.248  "/><path d="M62.701,77.864c-0.265,0-0.479,0.216-0.479,0.48v1.807H52.76v-1.807c0-0.265-0.215-0.48-0.48-0.48s-0.48,0.216-0.48,0.48   v4.572c0,0.265,0.215,0.48,0.48,0.48s0.48-0.216,0.48-0.48v-1.805h9.462v1.805c0,0.265,0.215,0.48,0.479,0.48   c0.266,0,0.48-0.216,0.48-0.48v-4.572C63.182,78.08,62.967,77.864,62.701,77.864z"/></g></svg>