<?xml version="1.0" ?><!DOCTYPE svg  PUBLIC '-//W3C//DTD SVG 1.1//EN'  'http://www.w3.org/Graphics/SVG/1.1/DTD/svg11.dtd'><svg enable-background="new 0 0 64 64" height="64px" id="Layer_1" version="1.1" viewBox="0 0 64 64" width="64px" xml:space="preserve" xmlns="http://www.w3.org/2000/svg" xmlns:xlink="http://www.w3.org/1999/xlink"><g><path d="M49.576,62.461l-9.249-28.444c-0.207-0.589-0.974-2.218-3.158-2.218h-1.864   c-1.828,0-1.746-1.389-1.746-1.389c0-1.025,1.021-1.125,1.368-1.131h2.679c1.384,0,1.661-0.688,1.709-1.109v-0.527   c-0.01-0.32-0.169-1.302-1.868-1.302H26.333c-1.786,0-1.706,1.429-1.706,1.429v0.071c0.008,0.294,0.151,1.438,1.845,1.438h2.68   c0,0,1.229-0.02,1.229,1.19v0.09c-0.007,0.296-0.15,1.239-1.745,1.239h-1.788c-2.509-0.04-3.216,2.157-3.223,2.175l-9.163,28.178   c-0.012,0.04-0.52,1.737,0.875,1.737h0.965c0.28-0.021,0.766-0.159,0.984-0.827l8.451-25.987c0.159-0.459,0.864-2.086,2.897-2.08   c0.28,0.006,1.746,0.153,1.746,2.54v14.509c0,1.813,1.085,1.994,1.456,2.004h0.095c0.355-0.01,1.626-0.193,1.626-2.381V37.099   c0-1.832,1.296-2.059,1.676-2.086c1.918,0.098,2.664,1.286,2.914,1.899l8.452,25.987c0.296,0.906,1.013,0.983,1.212,0.989h0.592   C49.769,63.897,49.698,62.941,49.576,62.461z" fill="#241F20"/><path d="M44.918,4.992h-5.123c-2.295,0-2.699-1.249-2.758-1.892V2.726c0,0-0.036-2.615-3.395-2.615h-3.776   c-3.04,0-2.905,2.493-2.905,2.493s0.086,2.389-2.831,2.389h-5.333c-0.658,0.012-2.758,0.272-2.758,3.151v12.051   c0.013,0.633,0.254,2.975,3.139,2.975h25.714c2.522,0,2.994-1.616,3.066-2.49V8.119C47.96,4.908,44.918,4.992,44.918,4.992z    M32,18.327c-2.424,0-4.388-1.964-4.388-4.388c0-2.424,1.964-4.388,4.388-4.388c2.424,0,4.388,1.964,4.388,4.388   C36.388,16.363,34.424,18.327,32,18.327z" fill="#241F20"/></g></svg>