<?xml version="1.0" ?><!DOCTYPE svg  PUBLIC '-//W3C//DTD SVG 1.1//EN'  'http://www.w3.org/Graphics/SVG/1.1/DTD/svg11.dtd'><svg enable-background="new 0 0 512 512" height="512px" id="Layer_1" version="1.1" viewBox="0 0 512 512" width="512px" xml:space="preserve" xmlns="http://www.w3.org/2000/svg" xmlns:xlink="http://www.w3.org/1999/xlink"><path d="M375.069,457.753v-51.914H156.411v51.914h-31.055V512h280.755v-54.247H375.069z M106.885,141.449  c-0.154,0.253,0.055,0.21,0.552-0.075C107.303,141.011,107.131,141.011,106.885,141.449 M166.632,200.244  c15.457-13.352,15.722-14.287,30.276-21.468c5.541-2.715,22.12,4.492,22.12,4.492s25.024,5.213,36.772,5.213  c5.099,0,9.605-2.217,13.083-4.721c-18.145,17.805-64.83,65.864-79.71,102.689c-14.157,35.049-12.452,71.746-10.831,87.336h182.573  c-2.122-14.098-3.19-47.777,18.338-102.999c29.397-75.452,27.429-146.964-20.576-209.676  c-23.664-30.912-55.891-39.423-82.495-40.134C257.23,1.759,219.2,0,219.2,0l8.443,32.517l0.708,12.911l-33.296,13.713  c0,0-11.767,2.944-11.767,13.734c0,10.051-68.746,64.582-75.852,68.499c0.895,2.734-1.548,25.728-1.548,34.364  c0,9.818,9.588,15.322,9.588,15.322l11.788,6.816C127.265,197.877,151.926,212.946,166.632,200.244"/></svg>