<?xml version="1.0" ?><!DOCTYPE svg  PUBLIC '-//W3C//DTD SVG 1.1//EN'  'http://www.w3.org/Graphics/SVG/1.1/DTD/svg11.dtd'><svg enable-background="new 0 0 128 128" id="Слой_1" version="1.1" viewBox="0 0 128 128" xml:space="preserve" xmlns="http://www.w3.org/2000/svg" xmlns:xlink="http://www.w3.org/1999/xlink"><g><path d="M27.404,74.788l2.63,5.688c0.157,0.339,0.355,0.655,0.589,0.938c3.605,4.378,4.791,4.806,6.484,4.682   c0.121-0.008,0.246-0.018,0.378-0.018h0.882c0.133,0,0.257,0.01,0.378,0.018c0.146,0.011,0.288,0.017,0.428,0.017   c1.483,0,2.761-0.698,6.055-4.697c0.233-0.282,0.432-0.599,0.59-0.939l2.657-5.746c1.677-0.011,3.339-1.582,4.082-3.995   c0.396-1.289,0.489-2.644,0.261-3.812c-0.163-0.839-0.483-1.508-0.924-1.98c0.186-1.923,0.46-8.27-3.415-12.305   c-2.548-2.653-6.325-3.733-11.211-3.205c-0.185,0.017-4.558,0.421-7.016,1.974c-0.159,0.101-0.336,0.206-0.526,0.319   c-2.257,1.344-6.878,4.126-5.551,13.145c-0.52,0.476-0.891,1.201-1.068,2.135c-0.221,1.171-0.121,2.523,0.283,3.811   C24.134,73.183,25.758,74.731,27.404,74.788z M30.751,53.443c0.206-0.122,0.398-0.236,0.571-0.346   c2.047-1.294,6.084-1.669,6.143-1.675c4.251-0.461,7.47,0.414,9.566,2.594c3.101,3.224,3.036,8.521,2.893,10.461   c-0.143,0.12-0.266,0.267-0.325,0.459c-0.162,0.528,0.134,1.088,0.662,1.25c0.193,0.059,0.461,0.435,0.595,1.119   c0.164,0.84,0.087,1.876-0.21,2.842c-0.544,1.769-1.696,2.769-2.319,2.576c-0.02-0.009-0.073-0.031-0.093-0.038   c-0.489-0.186-1.036,0.044-1.255,0.518l-2.974,6.433c-0.084,0.183-0.194,0.357-0.318,0.508c-3.346,4.063-4.051,4.011-4.799,3.959   c-0.166-0.012-0.336-0.023-0.519-0.023h-0.882c-0.183,0-0.353,0.012-0.519,0.023c-0.747,0.053-1.453,0.104-4.8-3.96   c-0.124-0.15-0.233-0.325-0.317-0.506l-2.935-6.348c-0.114-0.245-0.322-0.435-0.577-0.523c-0.215-0.076-0.447-0.075-0.658-0.002   c-0.696,0.188-1.831-0.798-2.379-2.545c-0.302-0.965-0.385-2-0.226-2.841c0.13-0.685,0.396-1.062,0.524-1.104   c0.025-0.005,0.09-0.02,0.114-0.026c0.519-0.141,0.813-0.661,0.693-1.186c-0.039-0.17-0.133-0.309-0.245-0.43   C24.997,56.896,28.581,54.737,30.751,53.443z" fill="#323638"/><path d="M75.446,39.512c0.741,2.366,2.366,3.915,4.012,3.972l2.63,5.688c0.156,0.337,0.354,0.653,0.589,0.939   c3.295,4,4.573,4.698,6.056,4.698c0.14,0,0.282-0.006,0.428-0.017c0.121-0.008,0.245-0.018,0.378-0.018h0.882   c0.133,0,0.257,0.01,0.378,0.018c1.689,0.124,2.877-0.304,6.483-4.682c0.234-0.283,0.432-0.599,0.59-0.939l2.657-5.746   c1.677-0.011,3.339-1.582,4.082-3.995c0.396-1.289,0.489-2.643,0.261-3.812c-0.163-0.839-0.483-1.509-0.924-1.98   c0.186-1.922,0.46-8.27-3.415-12.306c-2.548-2.652-6.324-3.734-11.211-3.204c-0.185,0.017-4.558,0.421-7.016,1.974   c-0.159,0.101-0.335,0.206-0.525,0.318c-2.257,1.344-6.879,4.124-5.552,13.143C74.94,34.741,74.763,37.337,75.446,39.512z    M82.806,22.14c0.206-0.123,0.397-0.237,0.57-0.346c2.047-1.294,6.084-1.669,6.144-1.675c4.248-0.46,7.469,0.414,9.566,2.593   c3.101,3.224,3.036,8.522,2.893,10.462c-0.143,0.12-0.266,0.267-0.325,0.459c-0.162,0.528,0.134,1.088,0.662,1.25   c0.193,0.059,0.461,0.435,0.595,1.119c0.164,0.839,0.087,1.875-0.21,2.841c-0.543,1.77-1.69,2.769-2.382,2.55   c-0.498-0.204-1.062,0.021-1.285,0.506l-2.974,6.433c-0.086,0.186-0.193,0.356-0.319,0.509c-3.345,4.062-4.048,4.019-4.799,3.958   c-0.166-0.011-0.336-0.022-0.519-0.022h-0.882c-0.182,0-0.353,0.012-0.519,0.022c-0.746,0.06-1.455,0.102-4.799-3.957   c-0.125-0.152-0.235-0.328-0.318-0.509l-2.935-6.348c-0.114-0.245-0.322-0.435-0.577-0.523c-0.215-0.076-0.447-0.075-0.658-0.002   c-0.694,0.188-1.832-0.798-2.379-2.546c-0.646-2.059-0.15-3.801,0.293-3.943c0.018-0.003,0.071-0.014,0.089-0.019   c0.527-0.125,0.841-0.644,0.73-1.173c-0.037-0.18-0.135-0.326-0.253-0.453C77.051,25.59,80.635,23.431,82.806,22.14z" fill="#323638"/><path d="M114.876,67.684c0.027-0.053,0.059-0.103,0.075-0.159c0.017-0.058,0.018-0.118,0.025-0.179   c0.008-0.07,0.017-0.138,0.01-0.208c-0.002-0.016,0.005-0.031,0.002-0.047c-0.121-0.797-0.265-1.642-0.513-2.456   c-1.302-3.769-4.95-4.613-5.555-4.729l-10.075-3.09c-0.413-0.125-0.859,0.026-1.108,0.377l-7.73,10.869l-7.653-10.866   c-0.249-0.354-0.697-0.506-1.111-0.38l-10.075,3.09c-0.605,0.115-4.254,0.962-5.567,4.765c-0.218,0.718-0.414,1.6-0.538,2.42   c-0.002,0.016,0.004,0.03,0.002,0.046c-0.007,0.07,0.003,0.138,0.01,0.208c0.007,0.061,0.007,0.121,0.024,0.179   c0.017,0.056,0.049,0.106,0.075,0.159c0.033,0.064,0.062,0.128,0.107,0.184c0.01,0.012,0.012,0.027,0.023,0.039   c6.527,7.323,15.625,11.522,24.962,11.522c9.127,0,17.82-4.091,24.476-11.521c0.011-0.012,0.013-0.027,0.023-0.039   C114.814,67.812,114.843,67.748,114.876,67.684z M90.269,77.428c-8.618,0-17.024-3.829-23.147-10.509   c0.106-0.582,0.242-1.164,0.383-1.631c0.993-2.874,3.937-3.399,4.057-3.42c0.046-0.007,0.092-0.018,0.137-0.031l9.438-2.895   l8.049,11.429c0.187,0.265,0.491,0.423,0.815,0.424c0.001,0,0.001,0,0.002,0c0.324,0,0.627-0.156,0.815-0.421l8.13-11.433   l9.442,2.896c0.045,0.014,0.091,0.024,0.137,0.031c0.031,0.005,3.054,0.515,4.045,3.384c0.156,0.516,0.263,1.093,0.358,1.667   C106.703,73.695,98.676,77.428,90.269,77.428z" fill="#323638"/><path d="M91.804,84.645c-0.183-0.299-0.523-0.521-0.86-0.478c-0.351,0.002-0.674,0.188-0.853,0.489l-5.826,9.812   c-0.282,0.476-0.125,1.089,0.349,1.371c0.16,0.095,0.336,0.14,0.51,0.14c0.341,0,0.674-0.175,0.861-0.489L90,88.727v5.328   C90,101.744,83.744,108,76.055,108H58.333c-0.552,0-1,0.447-1,1s0.448,1,1,1h17.722C84.847,110,92,102.847,92,94.055v-5.259   l4.105,6.706c0.288,0.47,0.903,0.617,1.375,0.33c0.471-0.288,0.619-0.903,0.331-1.375L91.804,84.645z" fill="#323638"/><path d="M37.091,44.49c0.179,0.301,0.502,0.487,0.853,0.489c0.002,0,0.004,0,0.007,0   c0.348,0,0.671-0.181,0.853-0.478l6.008-9.812c0.288-0.472,0.14-1.087-0.331-1.375c-0.469-0.286-1.085-0.14-1.375,0.33   l-4.155,6.787v-6.612c0-7.624,6.203-13.827,13.827-13.827H73.5c0.552,0,1-0.447,1-1s-0.448-1-1-1H52.777   c-8.727,0-15.827,7.1-15.827,15.827v6.517l-3.966-6.68c-0.282-0.475-0.895-0.631-1.371-0.35c-0.475,0.282-0.631,0.896-0.349,1.371   L37.091,44.49z" fill="#323638"/><path d="M62.691,99.211c0.011-0.012,0.013-0.027,0.023-0.04c0.045-0.056,0.075-0.119,0.108-0.183   c0.027-0.054,0.059-0.104,0.076-0.16c0.017-0.057,0.018-0.117,0.025-0.178c0.008-0.07,0.018-0.138,0.01-0.209   c-0.002-0.016,0.005-0.031,0.002-0.048c-0.121-0.797-0.265-1.641-0.513-2.454c-1.302-3.769-4.95-4.613-5.555-4.729l-10.075-3.09   c-0.413-0.126-0.859,0.025-1.108,0.377l-7.73,10.869l-7.653-10.866c-0.249-0.354-0.697-0.505-1.111-0.38l-10.075,3.09   c-0.605,0.115-4.254,0.962-5.567,4.765c-0.218,0.717-0.414,1.599-0.538,2.418c-0.002,0.016,0.004,0.031,0.002,0.047   c-0.007,0.07,0.003,0.138,0.01,0.209c0.007,0.06,0.007,0.121,0.024,0.178c0.017,0.057,0.049,0.107,0.076,0.161   c0.032,0.064,0.061,0.127,0.107,0.182c0.01,0.012,0.012,0.027,0.023,0.039c6.354,7.13,15.472,11.219,25.016,11.219   C47.672,110.428,56.117,106.549,62.691,99.211z M38.269,108.428c-8.817,0-17.241-3.718-23.2-10.206   c0.106-0.582,0.242-1.163,0.383-1.63c0.993-2.874,3.937-3.399,4.057-3.42c0.046-0.007,0.092-0.018,0.137-0.031l9.438-2.895   l8.049,11.429c0.187,0.265,0.491,0.423,0.815,0.424c0.001,0,0.001,0,0.002,0c0.324,0,0.627-0.156,0.815-0.421l8.13-11.433   l9.442,2.896c0.045,0.014,0.091,0.024,0.137,0.031c0.031,0.005,3.054,0.515,4.045,3.384c0.156,0.515,0.263,1.092,0.358,1.666   C54.741,104.896,46.936,108.428,38.269,108.428z" fill="#323638"/></g></svg>