<?xml version="1.0" ?><svg enable-background="new 0 0 64 64" height="64px" id="Layer_1" version="1.1" viewBox="0 0 64 64" width="64px" xml:space="preserve" xmlns="http://www.w3.org/2000/svg" xmlns:xlink="http://www.w3.org/1999/xlink"><circle cx="32" cy="32" fill="#77B3D4" r="32"/><path d="M35.404,46.473l-12-32C23.185,13.888,22.625,13.5,22,13.5s-1.185,0.388-1.404,0.973l-12,32  c-0.291,0.776,0.102,1.641,0.877,1.931c0.777,0.293,1.641-0.102,1.931-0.877L16.102,35h11.796l4.698,12.527  C32.821,48.129,33.393,48.5,34,48.5c0.175,0,0.353-0.031,0.527-0.096C35.302,48.114,35.695,47.249,35.404,46.473z M17.227,32  L22,19.272L26.773,32H17.227z" fill="#231F20" opacity="0.2"/><g opacity="0.2"><path d="M53,48.5h-8c-4.687,0-8.5-3.813-8.5-8.5c0-4.561,3.654-8,8.5-8h6.5v-1c0-1.588-0.484-2.749-1.48-3.546   c-2.529-2.026-7.853-1.401-9.69-0.99c-0.809,0.181-1.61-0.327-1.792-1.134c-0.182-0.808,0.325-1.61,1.132-1.792   c0.326-0.074,8.042-1.77,12.22,1.57C53.622,26.492,54.5,28.475,54.5,31v16C54.5,47.829,53.829,48.5,53,48.5z M45,35   c-3.187,0-5.5,2.103-5.5,5c0,3.033,2.467,5.5,5.5,5.5h6.5V35H45z" fill="#231F20"/></g><polyline fill="none" points="  10,45 22,13 34,45 " stroke="#FFFFFF" stroke-linecap="round" stroke-linejoin="round" stroke-miterlimit="10" stroke-width="3"/><line fill="none" stroke="#FFFFFF" stroke-linecap="round" stroke-linejoin="round" stroke-miterlimit="10" stroke-width="3" x1="16" x2="28" y1="31.5" y2="31.5"/><path d="  M40,23c0,0,13-2.937,13,6c0,10,0,16,0,16h-8c-3.866,0-7-3.134-7-7l0,0c0-3.866,3.134-6.5,7-6.5h7" fill="none" stroke="#FFFFFF" stroke-linecap="round" stroke-linejoin="round" stroke-miterlimit="10" stroke-width="3"/></svg>